<?xml version="1.0" encoding="utf-8"?>
<!-- Generator: Adobe Illustrator 28.0.0, SVG Export Plug-In . SVG Version: 6.00 Build 0)  -->
<svg version="1.1" id="Layer_1" xmlns="http://www.w3.org/2000/svg" xmlns:xlink="http://www.w3.org/1999/xlink" x="0px" y="0px"
	 viewBox="0 0 512 512" style="enable-background:new 0 0 512 512;" xml:space="preserve">
<style type="text/css">
	.st0{fill-rule:evenodd;clip-rule:evenodd;fill:#3737C8;}
	.st1{fill-rule:evenodd;clip-rule:evenodd;fill:#FFFFFF;}
	.st2{fill-rule:evenodd;clip-rule:evenodd;fill:#273785;}
	.st3{fill:#273785;}
</style>
<g>
	<ellipse transform="matrix(0.7071 -0.7071 0.7071 0.7071 -106.0385 256.0003)" class="st0" cx="256" cy="256" rx="256" ry="256"/>
	<polygon class="st1" points="192,76.7 197.5,83.7 205.7,80.8 200.9,88.5 206.4,95.4 197.8,93.2 192.9,100.9 192.6,91.4 184,89.1 
		192.3,86.2 	"/>
	<polygon class="st1" points="134.4,109.7 142,114.3 148.7,108.8 146.8,117.7 154.4,122.3 145.5,123.1 143.6,132 140.1,123.2 
		131.2,124 137.9,118.5 	"/>
	<polygon class="st1" points="91.8,160.5 100.5,162.3 104.9,154.8 106.1,163.8 114.8,165.6 106.8,169.4 108,178.4 101.7,171.3 
		93.7,175.1 98.1,167.6 	"/>
	<polygon class="st1" points="69.2,222.8 78,221.5 79.6,212.9 83.8,220.9 92.6,219.6 86.3,225.9 90.6,234 82.2,229.5 76,235.8 
		77.6,227.2 	"/>
	<polygon class="st1" points="69.1,288.8 76.9,284.6 75.5,276 82.2,282.1 90,277.9 86.3,286 93,292.1 83.7,290.7 79.9,298.8 
		78.5,290.2 	"/>
	<polygon class="st1" points="91.5,351.1 97.4,344.5 93.1,336.9 101.6,340.3 107.5,333.7 106.7,342.5 115.1,346 105.8,347.9 
		105.1,356.8 100.8,349.2 	"/>
	<polygon class="st1" points="191.6,435.1 191.8,426.2 183.6,423.2 192.3,420.4 192.6,411.5 197.7,418.8 206.3,416 200.5,423.4 
		205.6,430.7 197.4,427.7 	"/>
	<polygon class="st1" points="256.7,446.6 253.9,438.1 245.1,438 252.3,432.5 249.5,424 256.8,429.1 264,423.5 261,432.5 
		268.3,437.6 259.6,437.5 	"/>
	<polygon class="st1" points="321.8,435.3 316.3,428.3 308,431.2 312.9,423.5 307.4,416.6 316,418.8 320.8,411.1 321.1,420.6 
		329.7,422.9 321.5,425.8 	"/>
	<polygon class="st1" points="379.3,402.3 371.8,397.7 365,403.2 366.9,394.3 359.4,389.7 368.2,388.9 370.1,380 373.7,388.8 
		382.5,388 375.8,393.5 	"/>
	<polygon class="st1" points="422,351.5 413.3,349.7 408.8,357.2 407.6,348.2 398.9,346.4 406.9,342.6 405.7,333.6 412,340.7 
		420.1,336.9 415.7,344.4 	"/>
	<path class="st1" d="M184.3,43.4c5.2,0,9.4,4.2,9.4,9.4c0,5.2-4.2,9.4-9.4,9.4c-5.2,0-9.4-4.2-9.4-9.4
		C174.9,47.7,179.1,43.4,184.3,43.4z"/>
	<path class="st1" d="M133.4,66.2l19.1,24.7l-10.3,1.9l-9-11.4c-1.3,2.6-1.4,5.6-1.3,8.7l-7,0c-0.4-1.3-0.5-2.6-0.4-4
		c-11.8-0.3-8.1,15.3,9.3,11.5l0.7,5.3c-9.3,0.3-22.6,2-25-10.5c-0.4-5.6,2-9.5,7.4-11.5c2.8-0.8,5.5-0.9,8.7-0.1
		c0.7-2.1,1.3-4.2,2.2-6.2l-2.5-3.2c-11.7,7.9-22.2,16.4-31.3,25.4c8.6,2.4,12,7.3,9.9,14.9c6.2,1.4,10.4,0.3,15.9-1.8l3,3.2
		c-5.7,3.1-12.1,5.1-18.9,6.4c-5.9,0.9-10.6,0-13.4-3.4c-2.2-4,0-6.7,4.4-7.4c0.4-3.5-1.5-5.8-5.8-6.9c-2.6,2.8-5.2,5.7-7.5,8.6
		l-8.7-1.4c3.3-4,6.7-7.9,10.2-11.7l-9.9,1c-1.6,0.1-2.8,0.7-3.6,1.8l-3.5,5l-7.7-3l5.3-7.5c1.4-2,3.1-3.2,5.8-2.9l19.2-0.2
		c12.8-12.7,27.3-24.1,43.7-33.9l6.7,4.9C137.2,63.8,135.3,65,133.4,66.2L133.4,66.2z"/>
	<path class="st1" d="M39.6,298.8c-1-3.9-1.9-7.8-2.6-11.6l9.8-1.7c1.1,3.6,2.4,7.2,3.8,10.8c-25.9,11.3-4.8,40,3.7,23
		c1.1-4.1,1.2-8.9-2-12.4c-0.3-1.7,0.7-2.2,1.7-2.5c0.1,0.3,0.2,0.6,0.3,0.9c0.8,2.2,1.1,4.7,2.9,6.5c1.8,1.2,3.1,1,5.1-0.3
		c2.3-2,6.1-10.3,3.7-17.1c-0.9-2-2.4-2.8-4.8-1.9l-3.3,1.1l-2.7-9.6l7.5-1.3l3.2-9.9l-30.7,5.1c-0.3-2.2-0.7-4.3-0.9-6.5l25.5-2.9
		l3.8-9.7l-30.3,3.2c-0.4-5-0.6-10-0.7-14.9c3.9-2.2,6.9-1.9,9,1c-2.7,3.5-2.5,7,1.9,8.4c4.4,0.6,8.4-2,12.1-6.6
		c4.2-5.6,7.5-11.4,9.5-17.5l-4.4-0.3c-2.7,5.3-5,9-10.5,12.2c-3.7-7-9.6-8.3-17.6-4c0.4-14,2.2-27.6,5.2-40.7l4.9,0.9L40,215.9
		c-1.2,9.2,5.2,11.5,14.2,7.5c5.5-2.5,9.1-6.9,12.8-11l-2.1-4.2c-2.9,2.9-7.5,6.4-11.6,8.5c-4.2,1.4-6.4-1-6.2-3.7l3.1-11.3
		l13.3,2.4l6.4-8.2l-29.6-5.5c0.8-2.9,1.7-5.7,2.6-8.6l24.2,8.2l7.6-7.2l-28.6-9.9c1.7-4.4,3.5-8.8,5.4-13.2
		c6.1-0.1,7.7,3.1,4.9,9.8c-0.6,1.1-0.2,2,1.4,2.5c12.2,2.3,18.6-4.2,17.4-16.2l5.3,2.6l8.5-6.1L62,138.4c1-1.9,2.1-3.7,3.1-5.6
		l-9.3,0.3C48.7,145.5,42.7,158,38,170.7c-7.9,1.4-16.8,1.9-19.8,10.8c-4.6,13-4.2,28.2,11.4,17.8c-7.1,32.9-6.2,67.8,3.7,105.2
		L39.6,298.8z M45.2,313.3c-0.1-2.3,0.5-4.3,1.6-4.3c1.1-0.1,1.8,1.8,1.9,4.1s-0.3,4.2-1.5,4.2C46.1,317.4,45.3,315.6,45.2,313.3
		L45.2,313.3z M35,179.5c-1.1,3.6-2.2,7.2-3.2,10.8l-5.8,2.2c-1.5,0.5-2.2-0.7-1.8-2.4l0.9-5.9c0.6-2.1,1.9-3.3,4.1-3.6L35,179.5z
		 M54.8,152.3c0.9-1.8,1.8-3.7,2.7-5.5l10.2,5.1c1.9,8.1,0.5,13.7-4.8,13.5C65.8,157.9,63.1,153.6,54.8,152.3z"/>
	<polygon class="st1" points="422.2,160.9 416.3,167.5 420.6,175.1 412.2,171.7 406.3,178.3 407,169.5 398.6,166 407.9,164.1 
		408.6,155.2 412.9,162.8 	"/>
	<polygon class="st1" points="379.6,109.9 376.4,118.2 383,123.9 373.9,123.5 370.6,131.8 368.3,123.2 359.2,122.9 367.3,117.9 
		365,109.3 371.6,114.9 	"/>
	<polygon class="st1" points="257.1,65.4 259.9,73.9 268.6,74 261.4,79.5 264.2,88 256.9,82.9 249.7,88.5 252.7,79.5 245.4,74.4 
		254.1,74.5 	"/>
	
		<rect x="235.5" y="19" transform="matrix(0.9976 -6.970493e-02 6.970493e-02 0.9976 -2.1027 16.9348)" class="st1" width="12.2" height="39.1"/>
	<path class="st1" d="M254.4,57.1l0.7-39.3l11.4,0.2l13,22.4L278.6,30l0.2-11.7l9.8,0.2l-0.7,39.3l-10-0.3c-1-1.8-2.5-4.3-4.5-7.6
		c-2-3.3-3.8-6.4-5.4-9.3c-1.3-2.2-2.7-5.1-4.4-8.8c0.6,3.4,0.8,5.3,0.8,5.8l-0.3,19.7L254.4,57.1z"/>
	<path class="st1" d="M293,58.8l8.8-38.1l16.6,3.8c2.5,0.6,4.7,1.6,6.6,3.1c1.9,1.5,3.4,3.2,4.5,5.2c1.1,2,1.8,4.3,2.1,6.8
		c0.3,2.6,0.2,5.2-0.5,7.9c-0.8,3.4-2.2,6.4-4.2,9c-2,2.6-4.7,4.5-7.9,5.6c-3.3,1.1-7.1,1.2-11.3,0.2L293,58.8z M306.7,52.8
		c3.5,1.1,6.2,0.9,8.2-0.8c2-1.6,3.4-4,4.1-7.2c0.7-3.2,0.5-6.1-0.8-8.5c-1.2-2.5-3.5-3.9-6.8-4.3L306.7,52.8z"/>
	
		<rect x="322.5" y="46.8" transform="matrix(0.3584 -0.9336 0.9336 0.3584 170.1157 353.3572)" class="st1" width="39.2" height="12.2"/>
	<path class="st1" d="M343,74.4L372.9,46l11,6.1l-8.3,40.3l-10.7-6l1.7-7.9l-9.1-5.1l-5.7,5.7L343,74.4z M368.9,70.2l2.7-11.4
		l-8.2,8.3L368.9,70.2z"/>
	<path class="st1" d="M376.7,94.6l25.2-30.1l8.7,7.3l-4.1,25.6l6-8.6l7.6-9l7.5,6.3l-25.2,30.1l-7.6-6.5c0.4-2,0.8-4.9,1.3-8.7
		c0.5-3.8,1.1-7.3,1.7-10.6c0.4-2.5,1.1-5.7,2.1-9.6c-1.7,3-2.7,4.6-3,5l-12.7,15.1L376.7,94.6z"/>
	<path class="st1" d="M448,110.1l11.3,17.4c1.2,1.9,2.1,3.7,2.6,5.5c0.5,1.8,0.6,3.4,0.4,5c-0.2,1.6-0.7,3-1.6,4.3
		c-0.8,1.3-2,2.5-3.5,3.5c-1.9,1.2-3.9,1.9-6.2,2c-2.2,0.1-4.4-0.6-6.4-2.2l-10.4,15.3l-7.3-11.2l9.4-13.2l-1.9-3l-12.6,8.2
		l-6.6-10.2L448,110.1z M447.6,124.9l-6.3,4.1l3.1,4.8c0.8,1.2,1.7,1.9,2.7,2.1c1,0.2,1.9,0.1,2.8-0.5c0.9-0.6,1.4-1.4,1.6-2.4
		c0.2-1.1-0.1-2.2-0.9-3.4L447.6,124.9z"/>
	<path class="st1" d="M434.9,160.8l41.1-3.3l4.7,11.6l-31.9,26.1l-4.6-11.4l6.3-5.1l-3.9-9.7l-8,0.8L434.9,160.8z M457.7,173.8
		l9.2-7.1l-11.6,1.2L457.7,173.8z"/>
	
		<rect x="449.6" y="192.7" transform="matrix(0.9703 -0.2417 0.2417 0.9703 -34.1429 119.3026)" class="st1" width="39.2" height="12.2"/>
	<polygon class="st1" points="452.5,215.1 491.3,209.6 492.9,221.6 463.7,225.7 465.8,241 456.3,242.3 	"/>
	<polygon class="st1" points="456.5,248.7 496.3,241.2 495.5,252.3 472.3,256.2 494.8,263.2 494.1,272.6 471,276.8 493.3,283.9 
		492.7,293.1 454.3,279.9 455,269.9 477.2,266 455.8,259.3 	"/>
	<path class="st1" d="M453.4,285.2l34.8,22.1l-3.2,12.1l-41.2,1.7l3.2-11.9l8-0.3l2.7-10.1l-6.9-4.1L453.4,285.2z M463.8,309.3
		l11.7-0.1l-10-6L463.8,309.3z"/>
	<polygon class="st1" points="440.9,326 455.9,332.7 482,329.9 476.6,341.9 462.2,343 471.2,354.1 466.9,363.7 451.2,343.3 
		436.1,336.7 	"/>
	<path class="st1" d="M439.8,354l-4.5,10.3c-1.5-0.6-3-0.5-4.5,0.2c-1.5,0.7-2.7,1.7-3.7,2.9c-0.8,1.2-1.2,2.3-1.4,3.3
		c-0.2,1,0,1.7,0.6,2.1c1.2,0.7,3.5-0.5,6.9-3.6c3.4-3.1,6.6-5.2,9.5-6.3c2.9-1.2,6.2-0.2,9.9,3c1.7,1.4,2.8,3.2,3.3,5.5
		c0.5,2.2,0.4,4.6-0.2,7.2c-0.6,2.5-1.7,4.9-3.2,7c-2,2.8-4.5,5-7.4,6.4c-2.9,1.4-6.1,1.7-9.6,0.9l3.1-9.9c1.3,0.4,2.5,0.3,3.7-0.2
		c1.2-0.6,2.2-1.4,3-2.6c0.7-1,1.1-2,1.2-2.9c0.1-0.9-0.1-1.6-0.6-1.9c-0.9-0.8-2.2-0.4-3.9,1c-1.7,1.4-3.6,3.2-5.9,5.3
		c-2.3,2.1-4.7,3.4-7.3,4c-2.6,0.6-5.5-0.1-8.5-2.1c-2.3-1.6-3.8-3.6-4.5-6c-0.7-2.4-0.7-5.1,0-7.8c0.7-2.8,1.9-5.4,3.6-7.9
		c2.5-3.6,5.6-6.2,9.3-7.8C432.8,352.3,436.3,352.4,439.8,354L439.8,354z"/>
	<polygon class="st1" points="444.5,289.2 435.7,290.5 434.2,299.1 429.9,291.1 421.1,292.4 427.4,286.1 423.1,278 431.5,282.5 
		437.8,276.2 436.2,284.8 	"/>
	<polygon class="st1" points="444.6,223.2 436.8,227.4 438.3,236 431.5,229.9 423.7,234.1 427.4,226 420.7,219.9 430.1,221.3 
		433.8,213.2 435.2,221.8 	"/>
	<polygon class="st1" points="322.2,76.9 321.9,85.8 330.1,88.8 321.4,91.6 321.2,100.5 316.1,93.2 307.4,96 313.3,88.5 308.1,81.3 
		316.3,84.3 	"/>
	<circle class="st1" cx="256.9" cy="255.9" r="162.2"/>
	
		<ellipse transform="matrix(0.7071 -0.7071 0.7071 0.7071 -105.7227 256.5873)" class="st2" cx="256.9" cy="255.9" rx="144.9" ry="144.9"/>
	<path class="st0" d="M256.9,104.7c83.3,0,151.2,67.9,151.2,151.2s-67.9,151.2-151.2,151.2s-151.2-67.9-151.2-151.2
		S173.6,104.7,256.9,104.7L256.9,104.7z"/>
	<path class="st1" d="M146.5,162.3h220.7c6,7,11.3,14.6,15.9,22.7H130.6C135.2,176.9,140.5,169.3,146.5,162.3L146.5,162.3z"/>
	<path class="st1" d="M177.5,134.9h158.8c9.8,6.5,18.8,14.1,26.8,22.7H150.7C158.6,149,167.6,141.3,177.5,134.9z"/>
	<path class="st1" d="M128.1,189.7h257.6c3.7,7.2,6.9,14.9,9.4,22.7H118.7C121.2,204.5,124.3,196.9,128.1,189.7L128.1,189.7z"/>
	<path class="st1" d="M117.3,217.1h279.1c2.1,7.4,3.5,15,4.4,22.7H112.9C113.8,232.1,115.3,224.5,117.3,217.1z"/>
	<path class="st1" d="M112.5,244.5h288.8c0.3,3.8,0.4,7.5,0.4,11.4c0,3.8-0.2,7.6-0.4,11.4H112.5c-0.3-3.8-0.4-7.5-0.4-11.4
		C112,252.1,112.2,248.3,112.5,244.5L112.5,244.5z"/>
	<path class="st1" d="M112.9,272h287.9c-0.9,7.8-2.3,15.4-4.4,22.7H117.3C115.3,287.3,113.8,279.7,112.9,272L112.9,272z"/>
	<path class="st1" d="M118.7,299.4H395c-2.5,7.9-5.6,15.5-9.4,22.7H128.1C124.3,314.9,121.2,307.3,118.7,299.4z"/>
	<path class="st1" d="M130.6,326.8h252.5c-4.6,8.1-9.9,15.7-15.9,22.7H146.5C140.5,342.5,135.2,334.9,130.6,326.8L130.6,326.8z"/>
	<path class="st1" d="M150.7,354.2h212.4c-8,8.6-17,16.3-26.8,22.7H177.5C167.6,370.5,158.6,362.8,150.7,354.2z"/>
	<path class="st1" d="M329.8,130.8H183.9c21.4-12.6,46.4-19.8,72.9-19.8C283.4,111.1,308.4,118.3,329.8,130.8L329.8,130.8z"/>
	<path class="st1" d="M183.9,381h145.9c-21.4,12.6-46.4,19.8-72.9,19.8C230.3,400.8,205.4,393.5,183.9,381L183.9,381z"/>
	<polygon class="st0" points="245.2,186.9 187,212.7 186.2,382.3 255.5,426.4 266.2,426.3 334.1,378 334.2,271.3 	"/>
	<path class="st1" d="M332.4,275.7c-0.1,21-0.2,37.3-0.3,58.3c-12.7,0.1-27,0.1-41.8,0.1h-59c-15.3,0.1-30,0-43.1-0.1
		c-0.1-20.4-0.2-36.3-0.3-56.4c0-0.6-0.2-2.6,0-2c5.9,24.3,21.7,41.3,42.7,51.3v-4h68C314.9,312.5,327.6,296.4,332.4,275.7
		L332.4,275.7z"/>
	<path class="st0" d="M108.5,229.1c19.4-23,184.1-183.5,167.3-58.4c-8.8-4.9-18.9-4.8-27.3-0.3c-0.5-11-6.5-17.7-32.3-8.6
		c-42.1,18.6-76.1,48.4-108.5,80.4C108,237.8,108.3,233.5,108.5,229.1L108.5,229.1z"/>
	<path class="st0" d="M242.3,172.6c5.8,4.3,4,8.8,1.2,12.5c12.4,0.2,25.3,0.3,37.7,0.4c-4.3-3.7-3.4-8.9,0.7-12.9
		C268.6,161.4,256.1,160.8,242.3,172.6z"/>
	<path class="st0" d="M261,183.6c41.3,0,75,33.7,75,75c0,41.3-33.7,75-75,75c-41.3,0-75-33.7-75-75C186,217.3,219.7,183.6,261,183.6
		z"/>
	<path class="st1" d="M261,185.3c40.4,0,73.4,33,73.4,73.4c0,40.4-33,73.4-73.4,73.4c-40.4,0-73.4-33-73.4-73.4
		c0-35.4,25.2-65,58.6-71.9C251,185.8,256,185.3,261,185.3z"/>
	<path class="st0" d="M261.4,188.2c38.6,0,70.1,31.5,70.1,70.1c0,12.9-3.5,25-9.6,35.3l-35-17.9c-8.5,0-17,0-25.5,0
		c-8.5,0-17,0-25.4,0l-35,17.9c-6.1-10.4-9.6-22.5-9.6-35.3C191.3,219.7,222.8,188.2,261.4,188.2z"/>
	<rect x="187.8" y="336.8" class="st1" width="144.7" height="16.1"/>
	<polygon class="st1" points="187.9,353.2 332.5,353.2 332.5,378 306.3,393.1 303.8,394.5 260.4,419.5 260.2,419.6 187.9,378 	"/>
	<path class="st1" d="M249.3,172.9c8.9-2.9,17.3-3.3,26,0c0.9,0.3,1.8,0.6,1.8,1.3v1.7c0,0.7-1,1.6-1.8,1.3c-8.9-4-17-3.8-26,0
		c-0.9,0.4-1.8-0.6-1.8-1.3c0-0.6,0-1.1,0-1.7C247.5,173.5,248.4,173.2,249.3,172.9z"/>
	<path class="st1" d="M189.1,215.7c5-2.3,9.9-4.4,15-6.7c-7.5,8.5-11.5,18.6-15.2,26.2C188.8,229.3,189.2,221.8,189.1,215.7
		L189.1,215.7z"/>
	<path class="st1" d="M206.8,267.9c2.1-0.4,3.9,0,4.3,0.9c0.4,0.9-0.4,2.2-1.9,3.3c1.4,2.3,3.1,4.6,5,6.9c0.7,3.5-0.6,4.6-4,4.3
		c-2.2-3-4-6-5.7-9c-2.6,0.7-4.8,0.4-5.4-0.7c-0.5-1.1,0.8-2.8,3-4.1c-6-14.1-5.4-28.3,4.3-42c-2-1.6-3-3.4-2.3-4.4
		c0.7-1.1,3.1-1,5.6,0.1c2.5-2.9,5.3-5.7,8.7-8.5c2.7-1.8,5.4,0.3,3.5,2.6c-3.2,2.8-6,5.6-8.4,8.3c1.5,1.4,2.2,2.9,1.6,3.8
		c-0.6,1-2.6,1-4.8,0.2C201.3,242.3,200.2,254.8,206.8,267.9L206.8,267.9z"/>
	<path class="st1" d="M315.9,267.9c-2.1-0.4-3.9,0-4.3,0.9c-0.4,0.9,0.4,2.2,1.9,3.3c-1.4,2.3-3.1,4.6-5,6.9c-0.7,3.5,0.6,4.6,4,4.3
		c2.2-3,4-6,5.7-9c2.6,0.7,4.8,0.4,5.4-0.7c0.5-1.1-0.8-2.8-3-4.1c6-14.1,5.4-28.3-4.3-42c2-1.6,3-3.4,2.3-4.4
		c-0.7-1.1-3.1-1-5.6,0.1c-2.5-2.9-5.3-5.7-8.7-8.5c-2.7-1.8-5.4,0.3-3.5,2.6c3.2,2.8,6,5.6,8.4,8.3c-1.5,1.4-2.2,2.9-1.6,3.8
		c0.6,1,2.6,1,4.8,0.2C321.5,242.3,322.6,254.8,315.9,267.9L315.9,267.9z"/>
	<path class="st1" d="M261.4,216.7c22.9,0,41.6,18.7,41.6,41.6c0,22.9-18.7,41.6-41.6,41.6s-41.6-18.7-41.6-41.6
		C219.7,235.4,238.4,216.7,261.4,216.7z"/>
	<path class="st1" d="M114.9,224.9c19.2-19.2,173.5-168.8,158.8-56.5c-10.4-1.1-16.2-1.3-23.1-0.1c0.4-10.2-10.8-17.9-33.9-8.7
		c-40.4,16.9-70.7,42.9-101.8,72C114.9,227.7,114.8,228.8,114.9,224.9L114.9,224.9z"/>
	<ellipse class="st1" cx="261.9" cy="194.1" rx="15.9" ry="16.1"/>
	<path class="st1" d="M255.7,206.5c4,4.3,6.9,5.2,12.4,0.1l1.1,12.9c-5.5-2.3-9.6-2.3-14.6-0.5L255.7,206.5z"/>
	<path class="st0" d="M256.6,210.6c3.6,2.3,6.1,3.1,10.7-0.3l0.9,7.2c-4.6-1.5-8.1-1.4-12.5-0.4L256.6,210.6z"/>
	<path class="st0" d="M261.9,180.7c7.3,0,13.2,5.9,13.2,13.2c0,7.3-5.9,13.2-13.2,13.2c-7.3,0-13.2-5.9-13.2-13.2
		C248.7,186.6,254.7,180.7,261.9,180.7z"/>
	<path class="st1" d="M252.8,184.3v19.1c-0.7-0.7-1.4-1.5-2-2.3v-14.5C251.4,185.8,252.1,185,252.8,184.3z"/>
	<path class="st1" d="M257.9,181.4v25.1c-0.7-0.2-1.3-0.5-2-0.8v-23.5C256.5,181.8,257.2,181.6,257.9,181.4L257.9,181.4z"/>
	<path class="st1" d="M262.9,180.8v26.3c-0.3,0-0.7,0-1,0c-0.3,0-0.7,0-1,0v-26.3c0.3,0,0.6,0,1,0
		C262.2,180.7,262.6,180.7,262.9,180.8L262.9,180.8z"/>
	<path class="st1" d="M267.9,182.2v23.5c-0.6,0.3-1.3,0.6-2,0.8v-25.1C266.6,181.6,267.3,181.8,267.9,182.2L267.9,182.2z"/>
	<path class="st1" d="M273,186.7v14.5c-0.6,0.9-1.2,1.6-2,2.3v-19.1C271.7,185,272.4,185.8,273,186.7z"/>
	<polygon class="st0" points="187.6,313.7 191.6,313.6 191.8,308 204.5,308.1 205.4,309 205.6,313.1 210.5,313.3 208,311.1 
		212.5,314.9 212.5,332 187.7,331.9 	"/>
	<polygon class="st0" points="333.5,313.7 329.2,313.6 329.1,308 317.3,308.1 316.4,309 316.2,313.1 311.5,313.3 313.9,311.1 
		309.6,314.9 309.7,332 333.5,331.9 	"/>
	<rect x="186.9" y="346.7" class="st0" width="147.2" height="2.6"/>
	<rect x="186.8" y="334.1" class="st0" width="147.3" height="2.8"/>
	<rect x="186.6" y="352.2" class="st2" width="147" height="1.5"/>
	<path class="st0" d="M217.9,328.8c6.6,0,12.1,5.4,12.1,12.1c0,6.6-5.4,12.1-12.1,12.1c-6.6,0-12.1-5.4-12.1-12.1
		C205.9,334.2,211.3,328.8,217.9,328.8z"/>
	<path class="st0" d="M303,328.8c6.6,0,12.1,5.4,12.1,12.1c0,6.6-5.4,12.1-12.1,12.1c-6.6,0-12.1-5.4-12.1-12.1
		C291,334.2,296.4,328.8,303,328.8z"/>
	<rect x="253.8" y="338" class="st0" width="10.8" height="2.3"/>
	<rect x="251.7" y="338" class="st0" width="2.3" height="6.3"/>
	<rect x="247.6" y="337.6" class="st0" width="2.3" height="9.2"/>
	<rect x="264.6" y="338" class="st0" width="2.3" height="8.7"/>
	<rect x="270.4" y="335.9" class="st0" width="2.3" height="10.8"/>
	<path class="st1" d="M217.9,330.9c5.5,0,9.9,4.5,9.9,9.9c0,5.5-4.5,9.9-9.9,9.9s-9.9-4.5-9.9-9.9
		C208,335.4,212.5,330.9,217.9,330.9z"/>
	<path class="st1" d="M303,330.9c5.5,0,9.9,4.5,9.9,9.9c0,5.5-4.5,9.9-9.9,9.9c-5.5,0-9.9-4.5-9.9-9.9
		C293.1,335.4,297.5,330.9,303,330.9z"/>
	<path class="st1" d="M200.4,316.2c3,0,5.4,2.6,5.4,5.9c0,3.2-2.4,5.9-5.4,5.9c-3,0-5.4-2.6-5.4-5.9
		C195,318.8,197.4,316.2,200.4,316.2z"/>
	<path class="st1" d="M322.2,316.2c-3,0-5.4,2.6-5.4,5.9c0,3.2,2.4,5.9,5.4,5.9c3,0,5.4-2.6,5.4-5.9
		C327.6,318.8,325.1,316.2,322.2,316.2z"/>
	<polygon class="st0" points="187.3,213.7 186.7,374.9 95.9,406.4 128,347.8 123.5,340.9 143.2,308.4 144.5,301.1 156.8,279.5 
		161.8,250.6 	"/>
	<polygon class="st0" points="186.7,374 186.8,399.8 95.6,406.6 99.1,404.7 	"/>
	<path class="st0" d="M95.8,406.8c0,1.2,0.2,2.9,0.1,4.1c3.9,0.7,8,2.6,11.9,3.2c3,2.5,5.9,3.1,8.5-0.9c4.5,8.3,9.1,7.8,14-1.3
		c4.8,11.1,13.1,10.2,14.7-1.6c0-0.2-0.2-0.2-0.2-0.4c3.3,18.6,17,17.6,21.6-2.7c4.9,22.3,21.4,10.8,20.5-7.5
		C157.2,402.6,125.5,403.8,95.8,406.8L95.8,406.8z"/>
	<polygon class="st1" points="186.7,220.5 185.6,373.2 100.1,402.7 131.4,347.3 127,340.1 146.6,307.9 147.2,302.3 159.8,280.6 
		164.8,252.2 	"/>
	<polygon class="st1" points="185.6,386.6 185.6,398.7 98.7,405.4 	"/>
	<polygon class="st1" points="185.7,376.2 185.6,383.3 102.9,404.1 	"/>
	<path class="st1" d="M97.2,408.1c0,1.1-0.2,1.7-0.3,2.8c3.8,0.6,7.8,2.4,11.6,3c2.9,2.4,5.7,2.8,8.3-0.8c4.4,7.8,8.9,7.3,13.6-1.2
		c4.7,10.4,12.7,9.5,14.4-1.5c0-0.2-0.2-0.2-0.2-0.4c3.2,17.3,16.6,16.4,21-2.5c4.8,20.8,20.9,10.7,19.9-6.4
		C156.6,403.9,126.1,405.4,97.2,408.1L97.2,408.1z"/>
	<polygon class="st0" points="153.7,306.3 168.7,289.2 168.7,322.2 153.7,332.8 	"/>
	<polygon class="st0" points="133.9,367.8 141.8,361.6 141.9,374.8 134.1,379.5 	"/>
	<polygon class="st0" points="123.9,376.5 130.2,371.6 130.3,382.1 124,385.9 	"/>
	<polygon class="st0" points="116.3,384.1 120.7,380.7 120.8,388 116.4,390.6 	"/>
	<polygon class="st0" points="109.9,390.7 112.7,388.5 112.8,393.2 109.9,394.9 	"/>
	<polygon class="st0" points="104.6,395.3 106.3,394 106.3,396.9 104.6,397.9 	"/>
	<polygon class="st1" points="214.6,358 208.6,357.9 208.6,363.9 	"/>
	<rect x="190" y="356.3" class="st0" width="7.4" height="7.4"/>
	<rect x="226.5" y="356.3" class="st0" width="7.4" height="7.4"/>
	<rect x="263.1" y="356.3" class="st0" width="7.4" height="7.4"/>
	<rect x="298.8" y="356.3" class="st0" width="7.4" height="7.4"/>
	<rect x="206.9" y="371.9" class="st0" width="7.4" height="7.4"/>
	<rect x="281.6" y="371.9" class="st0" width="7.4" height="7.4"/>
	<rect x="318.9" y="371.9" class="st0" width="7.4" height="7.4"/>
	<rect x="226.6" y="387" class="st0" width="7.4" height="7.4"/>
	<rect x="263.1" y="387" class="st0" width="7.4" height="7.4"/>
	<polygon class="st0" points="280.6,402.6 288,402.6 288,406.3 280.6,410.6 	"/>
	<rect x="244.2" y="371.9" class="st0" width="7.4" height="7.4"/>
	<rect x="244.6" y="402.6" class="st0" width="7.4" height="7.4"/>
	<polygon class="st0" points="298.8,387 306.2,387 306.2,393 303.6,394.4 298.8,394.4 	"/>
	<path class="st0" d="M218.9,356.3l-12,0v12.1L218.9,356.3z M214.6,358.2l-6,0v6L214.6,358.2z"/>
	<path class="st0" d="M256.2,356.3l-12,0v12.1L256.2,356.3z M252,358.2l-6,0v6L252,358.2z"/>
	<path class="st0" d="M293.6,356.3l-12,0v12.1L293.6,356.3z M289.3,358.2l-6,0v6L289.3,358.2z"/>
	<path class="st0" d="M330.9,356.3l-12,0v12.1L330.9,356.3z M326.6,358.2l-6,0v6L326.6,358.2z"/>
	<path class="st0" d="M202.1,371.9l-12,0v12.1L202.1,371.9z M197.8,373.8l-6,0v6L197.8,373.8z"/>
	<path class="st0" d="M238.5,371.9l-12,0v12.1L238.5,371.9z M234.3,373.8l-6,0v6L234.3,373.8z"/>
	<path class="st0" d="M275.1,371.9l-12,0v12.1L275.1,371.9z M270.8,373.8l-6,0v6L270.8,373.8z"/>
	<path class="st0" d="M310.8,371.9l-12,0v12.1L310.8,371.9z M306.5,373.8l-6,0v6L306.5,373.8z"/>
	<path class="st0" d="M218.9,387l-12,0v2.1l1.8,1.1l3.2,2l1.5,1L218.9,387z M214.6,389l-6,0v1l3.3,2.1L214.6,389z"/>
	<path class="st0" d="M256,387l-12,0v12.1L256,387z M251.8,388.8l-6,0v6L251.8,388.8z"/>
	<path class="st0" d="M293.2,387l-12,0v12.1L293.2,387z M289,388.8l-6,0v6L289,388.8z"/>
	<path class="st0" d="M238.5,402.6l-12,0v5.3l4.2,2.6L238.5,402.6z M234.3,404.5l-6,0v4.5l1,0.6L234.3,404.5z"/>
	<path class="st0" d="M275.1,402.9l-12,0V415L275.1,402.9z M270.8,404.7l-6,0v6L270.8,404.7z"/>
	<path class="st0" d="M211.9,291.2c-0.4,0.1-0.9,0.8-0.6,1.7c1.8,1.3,4.2,3,6.2,4.9c1.9,4.1-0.8,6.2-3.6,2.5c-1.5-0.2-2,1.4-0.3,2.9
		c0,2,0.4,4.5,1.3,6.7s2.3,4,4.4,4.6c0.7-0.6,0.6-0.7-0.2-1.8c-2.7-1.4-3.8-5-3.5-7.5c1-0.3,7.5,3.5,7.7,4.1
		c0.2,2.3,0.1,4.9,0.3,7.1c0.4,0.6,0.9,0.7,1.4,0.2c0-1.5-0.2-5-0.1-7.9c0.1-2.9,0.5-5.3,1.7-4.7c3.7,1.9,7.2,3.7,10.6,5.2
		c2.1,2,1.1,4.7-1.8,3.4c-6.5-7.3-9.4,0.1-5.1,7c0.9,0.2,1.2-0.2,1-1.3c-3.2-6.1-0.7-8.8,3-5c-1.4,5.8,5.4,11.8,8.4,6.4
		c0.1,1.4,0.1,4.1,0.2,5.5c0.5,0.3,1.1,0.6,1.5-0.1c0-2.3,0-4.4,0-6.6c0-2.2,0-4.3,0-6.6c1.7-0.1,3.4,0.2,4.9,0.8
		c0.2,1.7,0.3,3.3,0,4.8c-3,0.5-0.4,7.7,2,3c1.4,0,2.7,0.1,4.1,0.2v6.5c0.5,0.3,0.8,0.3,1.1,0c0-2.3,0.1-4.6,0.1-6.9
		c0-2.3,0.1-4.6,0.1-6.9c2.9-0.1,5.8-0.3,8.5-0.1c0.2,0.3,0.3,0.5,0.5,0.8c0.2,1.9,0.1,4.2,0,6.1c-1.5,4-5.6,2.2-5.1-0.5
		c-0.6-4.8,4.3-1.2,3.4-4.6c-3.6-1.1-5.2,2.2-4.8,5.4c0.6,2.8,2.2,4.3,6.3,3c0.2,1,0,2.3,0.1,3.3c0.4,0.4,0.9,0.5,1.3,0
		c0-2.3,0-4.6,0-6.9c0-2.3,0.1-4.6,0-6.9c1.1-0.5,1.8-0.5,2.2-0.7c0.3-0.2,0.2-0.7,0.1-1.6c-4.2,1-8.5,1-12.6,0.6
		c-1.3-2.4-2.7-4.6-4.4-6.7c-0.7-0.1-0.9-0.1-1,0.7c1.5,2.3,2.7,4,3.5,5.9c-7.5-0.2-14.5-2.3-20.8-5.2c-4-1.9-7.9-4.1-11.7-6.6
		C219,297.1,215.4,294.3,211.9,291.2L211.9,291.2z M220,300.2c1.2,0.1,3.5,1.7,3.5,3.1c0,1.4,0.3,3.2-1.1,3.1
		c-1.4-0.1-3.2-1.3-3.3-2.8C219.1,302.1,218.8,300.1,220,300.2L220,300.2z M239.9,310.8c1.2-0.1,2.1,0.4,3.1,0.9
		c0,2.1-0.1,5.1-0.7,6.1c-2.3,3.9-7.2,0.5-5.9-2.7C238.5,315.8,240,314.5,239.9,310.8z M255.3,314.9c0,1,0.2,3.3-0.5,3.5
		c-0.8,0.2-1.7,0.2-2.6,0c-0.5-0.1-1.2-0.1-1.2-0.6c0-2.8-0.4-4.6,0.9-4.6C253.4,313.2,255.3,313.6,255.3,314.9z"/>
	<path class="st3" d="M256.1,327.8c-0.2,0-0.5-0.1-0.7-0.2l-0.1-0.1v-6.4c-0.6,0-1.3,0-1.9-0.1c-0.6,0-1.2-0.1-1.8-0.1
		c-0.8,1.5-1.6,1.7-2.1,1.6c-1-0.2-1.6-1.7-1.5-2.9c0-1,0.5-1.8,1.4-2c0.2-1.4,0.1-3-0.1-4.5c-1.5-0.6-3-0.9-4.6-0.8v13l0,0
		c-0.6,0.9-1.5,0.3-1.8,0.1l-0.1-0.1l0-0.1c0-0.7-0.1-1.7-0.1-2.8c0-0.7,0-1.5-0.1-2.1c-1.1,1.6-2.7,2.1-4.4,1.4
		c-2.6-1-4.9-4.7-4.1-8.4c-1.4-1.4-2.7-2-3.5-1.4c-0.9,0.6-0.9,2.9,0.9,6.3l0,0.1c0.1,0.7,0,1.1-0.3,1.4c-0.2,0.2-0.6,0.2-1,0.1
		l-0.1,0l0-0.1c-2.7-4.3-2.6-8.5-0.8-9.9c1.5-1.1,3.7-0.2,6.2,2.6c1.1,0.5,2,0.3,2.4-0.3c0.4-0.6,0.3-1.8-0.8-2.8
		c-2.8-1.2-5.7-2.7-8.6-4.2c-0.6-0.3-1.3-0.7-2-1c-0.2-0.1-0.4-0.1-0.5,0c-0.4,0.2-0.8,1.2-0.9,4.5c-0.1,1.9,0,4,0.1,5.7
		c0,0.9,0.1,1.7,0.1,2.2v0.1l-0.1,0.1c-0.3,0.3-0.6,0.4-0.9,0.4c-0.3,0-0.6-0.2-0.8-0.6l0,0l0-0.1c-0.1-1.1-0.1-2.3-0.1-3.5
		c0-1.2-0.1-2.5-0.1-3.6c-0.4-0.6-6.2-3.9-7.3-4c-0.2,2.5,1,5.9,3.4,7.2l0.1,0c0.5,0.6,0.8,1,0.7,1.3c0,0.3-0.2,0.5-0.6,0.7
		l-0.1,0.1l-0.1,0c-1.9-0.6-3.5-2.3-4.6-4.8c-0.8-2-1.3-4.4-1.3-6.7c-1.1-0.9-1.2-1.8-1-2.4c0.2-0.5,0.8-0.8,1.5-0.7l0.1,0l0.1,0.1
		c1.1,1.5,2.4,2.2,3.2,1.7c0.7-0.4,1.1-1.8,0.1-4c-1.9-1.8-4.1-3.4-6.1-4.9l-0.1,0l0-0.1c-0.2-0.6-0.1-1,0-1.3
		c0.1-0.3,0.4-0.5,0.7-0.6l0.1,0l0.1,0.1c3.5,3.1,7.1,5.9,10.8,8.3c3.6,2.4,7.4,4.5,11.7,6.6c6.9,3.2,13.7,5,20.4,5.2
		c-0.6-1.3-1.4-2.5-2.3-3.9c-0.3-0.5-0.7-1-1-1.6l0-0.1l0-0.1c0-0.3,0.1-0.6,0.3-0.8c0.2-0.2,0.5-0.1,0.9-0.1l0.1,0l0,0.1
		c1.6,2.1,3.1,4.3,4.4,6.6c4.9,0.5,8.8,0.3,12.4-0.6l0.2-0.1l0,0.2c0.2,0.9,0.2,1.5-0.2,1.8c-0.2,0.1-0.4,0.2-0.7,0.2
		c-0.4,0.1-0.8,0.2-1.4,0.5c0,1.9,0,3.8,0,5.7l0,1.7c0,2.1-0.1,4.2,0,6.3l0,0.1l-0.1,0.1c-0.2,0.3-0.5,0.4-0.8,0.4h0
		c-0.3,0-0.6-0.1-0.8-0.4l0,0l0-0.1c-0.1-0.5-0.1-1.1-0.1-1.7c0-0.5,0-1,0-1.4c-1.9,0.6-3.4,0.5-4.4-0.1c-0.9-0.6-1.6-1.6-1.9-3.1
		c-0.3-2.1,0.3-4,1.4-5c0.9-0.8,2.2-1,3.6-0.6l0.1,0l0,0.1c0.2,0.6,0.1,1.1-0.1,1.4c-0.3,0.4-0.9,0.5-1.5,0.5
		c-0.6,0.1-1.2,0.1-1.6,0.6c-0.3,0.4-0.4,1.1-0.3,2l0,0l0,0c-0.2,1.3,0.6,2.3,1.6,2.5c1,0.3,2.3-0.1,3.1-2.1c0.1-1.6,0.3-4,0-6
		l-0.2-0.4l-0.2-0.3c-2.1-0.2-4.2-0.1-6.6,0c-0.5,0-1.1,0-1.6,0.1l-0.3,13.7l-0.1,0.1C256.5,327.7,256.3,327.8,256.1,327.8z
		 M255.7,327.3c0.4,0.2,0.6,0.1,0.7,0l0.3-13.9l0.2,0c0.6,0,1.2,0,1.8-0.1c2.3-0.1,4.6-0.2,6.7,0l0.1,0l0,0.1
		c0.1,0.1,0.1,0.3,0.2,0.4c0.1,0.1,0.2,0.3,0.2,0.4l0,0.1c0.2,2,0.1,4.4,0,6.1l0,0.1c-0.8,2.2-2.5,2.7-3.6,2.4
		c-1.1-0.3-2.1-1.4-1.9-2.9c-0.1-1.1,0-1.8,0.4-2.3c0.5-0.6,1.2-0.7,1.9-0.7c0.5-0.1,1-0.1,1.2-0.4c0.1-0.2,0.2-0.5,0.1-1
		c-1.2-0.3-2.3-0.2-3.1,0.5c-1.1,0.9-1.6,2.7-1.3,4.7c0.3,1.4,0.9,2.3,1.7,2.9c1,0.6,2.4,0.6,4.3,0l0.2-0.1l0,0.2
		c0.1,0.5,0.1,1.1,0.1,1.7c0,0.5,0,1.1,0.1,1.6c0.2,0.2,0.3,0.2,0.5,0.2h0c0.1,0,0.3-0.1,0.5-0.2c0-2.1,0-4.2,0-6.2l0-1.8
		c0-1.9,0.1-3.9,0-5.8l0-0.1l0.1-0.1c0.7-0.3,1.2-0.5,1.6-0.5c0.3-0.1,0.5-0.1,0.6-0.2c0.2-0.1,0.1-0.6,0-1.2
		c-3.6,0.9-7.5,1-12.4,0.5l-0.1,0l-0.1-0.1c-1.3-2.4-2.7-4.5-4.3-6.6c-0.3,0-0.4,0-0.5,0c-0.1,0.1-0.1,0.3-0.1,0.4
		c0.3,0.5,0.7,1.1,1,1.5c1,1.5,1.9,2.9,2.5,4.3l0.1,0.3l-0.3,0c-6.8-0.2-13.8-1.9-20.8-5.2c-4.3-2.1-8.1-4.2-11.7-6.6
		c-3.7-2.4-7.3-5.2-10.8-8.3c-0.1,0.1-0.3,0.2-0.3,0.4c-0.1,0.2-0.2,0.5,0,1c2.1,1.5,4.3,3.1,6.2,4.9l0,0.1c1.1,2.4,0.6,4-0.2,4.5
		c-0.8,0.5-2.1,0.2-3.7-1.7c-0.5,0-0.9,0.2-1,0.5c-0.2,0.4,0,1.2,1,2l0.1,0.1l0,0.1c0,2.3,0.4,4.7,1.3,6.6c0.7,1.6,2,3.7,4.2,4.5
		c0.2-0.2,0.3-0.3,0.3-0.4c0-0.2-0.2-0.5-0.6-1c-2.7-1.5-3.9-5.1-3.6-7.7l0-0.1l0.1,0l0.1,0c1.4,0,7.6,3.6,7.8,4.3l0,0.1
		c0.1,1.2,0.1,2.4,0.1,3.7c0,1.1,0.1,2.3,0.1,3.4c0.2,0.2,0.3,0.3,0.5,0.4c0.2,0,0.3-0.1,0.5-0.2c0-0.5,0-1.3-0.1-2.1
		c-0.1-1.7-0.1-3.8-0.1-5.8c0.1-2.9,0.4-4.5,1.1-4.9c0.2-0.1,0.5-0.2,0.8,0c0.7,0.3,1.3,0.7,2,1c3,1.5,5.8,3,8.6,4.2l0.1,0
		c1.1,1.1,1.5,2.4,0.9,3.4c-0.4,0.6-1.4,1.1-2.9,0.4l-0.1-0.1c-2.3-2.6-4.4-3.5-5.7-2.6c-1.6,1.2-1.6,5.3,0.8,9.3
		c0.3,0.1,0.5,0,0.6-0.1c0.2-0.1,0.2-0.5,0.2-1c-1.7-3.2-2-5.9-0.7-6.8c0.9-0.7,2.5-0.1,4.1,1.5l0.1,0.1l0,0.1c-0.8,3.5,1.3,7,3.8,8
		c1.7,0.7,3.2,0,4.2-1.8l0.3-0.6l0,0.7c0,0.7,0.1,1.7,0.1,2.8c0,1,0,2,0.1,2.7c0.5,0.3,0.9,0.3,1.1,0V312l0.2,0
		c1.7-0.1,3.4,0.2,5,0.9l0.1,0l0,0.1c0.2,1.6,0.3,3.3,0,4.9l0,0.1l-0.1,0c-1,0.2-1.2,1.2-1.2,1.7c0,1.1,0.6,2.3,1.2,2.5
		c0.5,0.1,1.1-0.4,1.7-1.5l0.1-0.1l0.1,0c0.7,0,1.3,0,2,0.1c0.7,0,1.4,0.1,2.1,0.1l0.2,0V327.3z M239.6,319.8c-0.5,0-1-0.1-1.5-0.3
		c-1.5-0.7-2.6-2.6-1.9-4.4l0.1-0.2l0.2,0.1c0.9,0.3,1.6,0.2,2.1-0.2c0.8-0.6,1.2-2,1.1-3.9l0-0.2l0.2,0c1.2-0.2,2.2,0.4,3.2,0.9
		l0.1,0.1v0.1c0,3.3-0.2,5.4-0.7,6.2C241.6,319.3,240.6,319.8,239.6,319.8z M236.5,315.4c-0.5,1.5,0.5,3.1,1.8,3.7
		c1.1,0.6,2.7,0.5,3.8-1.4c0.4-0.7,0.7-2.8,0.7-5.9c-0.9-0.5-1.7-0.9-2.7-0.9c0,2-0.4,3.4-1.3,4.1
		C238.2,315.5,237.4,315.6,236.5,315.4z M253.6,318.8c-0.4,0-0.9,0-1.5-0.1l-0.2,0c-0.5-0.1-1.1-0.2-1.1-0.8c0-0.6,0-1.1,0-1.6
		c-0.1-1.5-0.1-2.5,0.4-3c0.2-0.2,0.4-0.3,0.7-0.3c0.7,0,2.3,0,3.2,0.9c0.3,0.3,0.5,0.7,0.4,1.1c0,0.2,0,0.4,0,0.6
		c0.1,1.6,0,2.9-0.7,3.1C254.5,318.8,254.1,318.8,253.6,318.8z M252,313.4l-0.2,0c-0.2,0-0.3,0.1-0.4,0.2c-0.3,0.4-0.3,1.3-0.3,2.7
		c0,0.5,0,1,0,1.6c0,0.2,0.3,0.3,0.8,0.4l0.2,0c1,0.2,1.9,0.2,2.5,0c0.5-0.1,0.4-1.9,0.4-2.7c0-0.2,0-0.5,0-0.6v0
		c0-0.3-0.1-0.6-0.3-0.8C254.3,313.7,253.3,313.4,252,313.4z M222.5,306.5l-0.1,0c-1.4-0.1-3.4-1.3-3.5-3c0-0.2,0-0.3,0-0.5
		c0-1.1-0.1-2.3,0.4-2.8c0.2-0.2,0.4-0.3,0.7-0.3c1.3,0.1,3.7,1.7,3.7,3.3c0,0.2,0,0.4,0,0.6c0,1,0,2-0.5,2.4
		C223.1,306.4,222.8,306.5,222.5,306.5z M220,300.4c-0.2,0-0.3,0-0.4,0.1c-0.4,0.4-0.4,1.6-0.3,2.6c0,0.2,0,0.3,0,0.5
		c0,1.4,1.9,2.5,3.1,2.6c0.2,0,0.4,0,0.6-0.2c0.4-0.4,0.4-1.3,0.3-2.1c0-0.2,0-0.4,0-0.6C223.3,302,221.2,300.4,220,300.4L220,300.4
		L220,300.4z"/>
	<path class="st0" d="M273.6,309.9c-0.3,0.7-0.1,1.1,0.3,1.5c1.9-0.4,3.7-0.9,5.7-1.5c0.8,0.9,1,1.7,0.5,2.6
		c-1.7,1.3-3.5,1.7-5.3,1.9c-0.8,0.6-0.5,1.1-0.2,1.5c3.2,0.1,2.1,5.7-0.3,5.5c-1.8-0.4-2.9-1.3-3.8-2.8c-0.6-0.1-0.8,0.3-0.5,1.1
		c0.9,2.4,2.8,3.3,4.4,3.5c3.5-0.6,3.6-3,3.5-7.1c0.9-1.3,1.9-1.3,2.7-0.1c0.1,2.2,0.2,4.5,0.3,6.7c0.4,0.8,0.9,0.5,1.3,0.1
		c-0.1-2.2-0.1-4.5-0.2-6.7c-0.1-2.2-0.1-4.4-0.2-6.7c1.9-0.8,4-1.8,5.9-2.6c2.3-0.2,1.7,3.7-1.5,4.7c-2,0.7,0.5,10.3,7.7,1.9
		c0,1.1,0,2.3,0.1,3.4c0.4,0.5,1,0.6,1.4-0.1c0-2.3,0-4.6,0-6.9c0-2.3,0-4.6,0-6.9c3.2-2.6,6.9-5.1,10.2-8.4c0.4,0.6,0.3,3,0.1,3.8
		c-3.9,1-6.3,3.7-7.4,7.1c-1.7,5.1,3.7,10.2,3.1,5.7c-2-0.9-1.9-4.2-0.9-6.8c1.1-2.6,3.2-4.7,5.2-3.1c0.1,2.3,0.1,4.4,0.1,6.7
		c0.4,0.6,1.3,0.3,1.4-0.3c0-2.4,0-4.7,0-7c0-2.3,0-4.6,0-7c0.1-0.4-0.2-0.5-0.1-0.7c0.3-0.6,1-1,1.7-1.9c0.1-0.4,0-1.2-0.6-1.4
		c-0.4,0.3-1.3,1.3-1.7,1.6c-1.3-0.5-2.5-2.1-3.8-3.2c-1,0-1.2,0.6-1.1,1.4c1,0.9,2.6,2.6,3.6,3.5c-4.2,4.3-9.3,8-14.7,10.8
		C285.2,306.6,279.4,308.7,273.6,309.9L273.6,309.9z M290.3,306c1.5-1.2,2.3-1.9,2.8-1.6c1,0.5,1,5,0.5,6.6
		c-0.9,2.9-5.8,5.7-5.2,1.4C289.7,311.5,291.8,310.5,290.3,306L290.3,306z"/>
	<path class="st3" d="M274.4,323.4L274.4,323.4c-1-0.1-3.4-0.7-4.6-3.6c-0.2-0.5-0.2-1,0-1.2c0.2-0.2,0.4-0.3,0.7-0.2l0.1,0l0,0.1
		c1,1.6,2.1,2.4,3.7,2.8c0.7,0.1,1.2-0.5,1.4-0.8c0.7-0.9,0.8-2.4,0.4-3.3c-0.3-0.6-0.8-0.9-1.5-1l-0.1,0l-0.1-0.1
		c-0.3-0.3-0.4-0.6-0.4-0.9c0-0.3,0.2-0.6,0.6-0.9l0.1,0c1.6-0.2,3.4-0.5,5.2-1.9c0.4-0.8,0.3-1.5-0.4-2.3c-2,0.7-3.8,1.1-5.6,1.5
		l-0.1,0l-0.1-0.1c-0.6-0.5-0.7-1.1-0.4-1.7l0-0.1l0.1,0c6-1.3,11.8-3.4,17-6.1c5.5-2.9,10.5-6.5,14.5-10.7
		c-0.5-0.5-1.1-1.1-1.7-1.7c-0.6-0.6-1.2-1.2-1.7-1.7l0,0l0-0.1c-0.1-0.5,0-0.9,0.2-1.2c0.2-0.3,0.6-0.4,1-0.4l0.1,0l0.1,0.1
		c0.4,0.3,0.7,0.7,1.1,1c0.8,0.8,1.7,1.7,2.5,2.1c0.2-0.2,0.5-0.4,0.7-0.7c0.3-0.3,0.7-0.7,0.9-0.8l0.1-0.1l0.1,0
		c0.3,0.1,0.5,0.3,0.6,0.5c0.2,0.4,0.2,0.8,0.1,1.1l0,0.1c-0.4,0.5-0.7,0.8-1,1c-0.3,0.3-0.6,0.5-0.7,0.9l0,0.1
		c0.1,0.1,0.1,0.3,0.1,0.5c0,2.4,0,4.7,0,7c0,2.3,0,4.6,0,7c-0.1,0.4-0.4,0.8-0.8,0.9c-0.4,0.1-0.7-0.1-1-0.4l0-0.1l0-0.1
		c0-2.3,0-4.4-0.1-6.6c-0.6-0.4-1.2-0.5-1.8-0.4c-1.1,0.3-2.3,1.6-3,3.5c-1,2.5-1.1,5.7,0.8,6.6l0.1,0l0,0.1c0.1,1,0,1.7-0.5,1.9
		c-0.3,0.2-0.8,0.1-1.3-0.4c-1.3-1.1-2.8-4.2-1.8-7.3c1.3-3.7,3.8-6.2,7.4-7.2c0.1-0.8,0.2-2.5,0-3.3c-2.4,2.3-5,4.3-7.4,6.2
		c-0.9,0.7-1.7,1.3-2.5,1.9c0,2.2,0,4.5,0,6.8c0,2.3,0,4.6,0,6.9l0,0.1c-0.2,0.3-0.4,0.6-0.7,0.6c-0.3,0-0.7-0.1-0.9-0.5l0-0.1
		l0-0.1c0-0.7,0-1.4,0-2.1l0-0.8c-2.9,3.2-4.9,3.4-6.1,2.9c-1.5-0.6-2.3-2.5-2.3-3.9c0-0.8,0.3-1.4,0.8-1.6c2-0.7,2.9-2.5,2.7-3.5
		c-0.1-0.5-0.5-0.8-1-0.8l-0.1,0c-0.9,0.4-1.8,0.8-2.7,1.2c-1,0.5-2.1,0.9-3.1,1.3c0,1,0.1,2,0.1,3.1c0,1.2,0.1,2.3,0.1,3.5
		c0,1.2,0.1,2.4,0.1,3.6c0,1,0.1,2,0.1,3.1l0,0.1l-0.1,0.1c-0.3,0.3-0.6,0.5-0.9,0.5c-0.3,0-0.5-0.2-0.7-0.6l0-0.1
		c-0.1-1.1-0.1-2.1-0.2-3.2c0-1.1-0.1-2.3-0.2-3.5c-0.3-0.5-0.7-0.7-1.1-0.7h0c-0.4,0-0.8,0.3-1.3,0.9
		C278.2,320.3,278.1,322.8,274.4,323.4L274.4,323.4z M270.3,318.7l-0.2,0.1c-0.1,0.1-0.1,0.4,0.1,0.8c1,2.7,3.3,3.3,4.2,3.4
		c3.4-0.6,3.5-2.9,3.3-6.9l0-0.1l0-0.1c0.5-0.7,1.1-1.1,1.6-1.1h0c0.5,0,1,0.3,1.4,0.9l0,0l0,0.1c0.1,1.2,0.1,2.4,0.2,3.5
		c0,1,0.1,2.1,0.1,3.1c0.1,0.2,0.2,0.3,0.4,0.4c0.2,0,0.4-0.1,0.5-0.3c0-1-0.1-2-0.1-3c0-1.2-0.1-2.4-0.1-3.6c0-1.2-0.1-2.3-0.1-3.5
		c0-1.1-0.1-2.1-0.1-3.2l0-0.1l0.1-0.1c1-0.4,2.1-0.9,3.2-1.4c0.9-0.4,1.8-0.8,2.7-1.2l0.1,0c0.8,0,1.4,0.4,1.6,1.1
		c0.3,1.3-0.9,3.3-2.9,4c-0.3,0.1-0.5,0.6-0.5,1.2c0,1.3,0.7,3,2.1,3.6c1.1,0.4,3,0.2,6-3.2l0.3-0.4l0,1.8c0,0.7,0,1.4,0,2
		c0.2,0.2,0.4,0.3,0.6,0.3c0.2,0,0.3-0.2,0.4-0.3c0-2.3,0-4.5,0-6.8c0-2.3,0-4.6,0-6.9v-0.1l0.1-0.1c0.8-0.7,1.7-1.3,2.6-2
		c2.5-1.9,5.2-4,7.6-6.4l0.2-0.2l0.1,0.2c0.4,0.7,0.3,3.2,0.2,4l0,0.1l-0.1,0c-3.5,0.9-6.1,3.3-7.3,7c-1,2.9,0.4,5.8,1.6,6.8
		c0.4,0.3,0.7,0.4,0.9,0.3c0.1-0.1,0.4-0.3,0.3-1.4c-2-1-2-4.3-0.9-7c0.8-2,2-3.4,3.3-3.7c0.8-0.2,1.5,0,2.2,0.5l0.1,0.1l0,0.1
		c0.1,2.3,0.1,4.3,0.1,6.7c0.1,0.2,0.3,0.2,0.5,0.2c0.2,0,0.4-0.3,0.5-0.5c0-2.4,0-4.7,0-7c0-2.3,0-4.6,0-7l0,0l0,0l0-0.3
		c0-0.1-0.1-0.3,0-0.4c0.2-0.4,0.5-0.7,0.8-1c0.3-0.3,0.6-0.6,0.9-1c0.1-0.2,0.1-0.5-0.1-0.8l-0.3-0.3c-0.2,0.2-0.5,0.4-0.7,0.7
		c-0.3,0.4-0.7,0.7-0.9,0.8l-0.1,0.1l-0.1,0c-1-0.4-1.9-1.3-2.8-2.2c-0.3-0.3-0.7-0.7-1-1c-0.3,0-0.5,0.1-0.7,0.3
		c-0.1,0.2-0.2,0.4-0.1,0.8c0.5,0.5,1.1,1.1,1.7,1.7c0.7,0.7,1.3,1.3,1.8,1.8l0.1,0.1l-0.1,0.1c-4.1,4.2-9.2,8-14.8,10.9
		c-5.1,2.7-11,4.8-17,6.1c-0.2,0.4-0.1,0.7,0.2,1.1c1.8-0.4,3.5-0.8,5.6-1.5l0.1,0l0.1,0.1c0.8,0.9,1,1.9,0.5,2.9l-0.1,0.1
		c-1.8,1.4-3.7,1.8-5.4,2c-0.2,0.2-0.4,0.4-0.4,0.6c0,0.2,0.1,0.4,0.2,0.6c1,0.1,1.6,0.7,1.8,1.2c0.5,1,0.4,2.6-0.4,3.7
		c-0.5,0.7-1.1,1-1.8,1C272.6,321.3,271.4,320.4,270.3,318.7L270.3,318.7z M289.4,314.9l-0.3,0c-0.5-0.1-1.2-0.6-1-2.4l0-0.1
		l0.3-0.2c1.4-0.9,3-2,1.6-6l0-0.1l0.4-0.4c1.3-1.1,2.1-1.7,2.7-1.3c1.1,0.6,1.1,5.2,0.6,6.8C293.1,313,290.9,314.9,289.4,314.9z
		 M288.5,312.6c-0.1,0.8-0.1,1.7,0.7,1.9c1.2,0.3,3.6-1.5,4.2-3.5c0.6-1.7,0.4-5.9-0.4-6.4c-0.4-0.2-1.1,0.4-2.2,1.3l-0.2,0.2
		c1.4,4.2-0.5,5.5-1.8,6.4L288.5,312.6z"/>
	<path class="st0" d="M260.1,222.6c1.4,0.7,2.2,0,2.9,0c1.4,0,2.9,0,3.6,0.7c0.7,0.7,0.7,1.5,1.4,2.2c0,0.7-0.7,2.2,0.7,3
		c0,0.7,0,0.7,0.7,1.5c0.7-0.7,2.9-0.7,3.6-2.2c0.7-0.7,1.4-0.7,2.9,0c0.7,0,1.4,0.7,2.2,1.5c0,0.7,0,1.5,0.7,1.5
		c1.4,0,2.9,0,2.9,1.5c-0.7,2.2,3.6,3.7,1.4,6c-1.4,0.7-2.2,2.2-2.9,3c-1.4,0-0.7,2.2-2.2,1.5c-0.7,0-0.7-2.2-1.4-1.5
		c0,0.7,0.7,1.5,0.7,2.2c0.7,0.7,0,2.2,0.7,3c-0.7,0.7,1.4,2.2,0,3.7c0.7,1.5-1.4,2.2-0.7,3.7c-1.4,0.7-0.7,1.5-1.4,2.2
		c-0.7,1.5-1.4,1.5-1.4,3c-0.7,0.7,0,2.2,0,3c0,3-2.2,5.2,0,8.2c0,0.7,0,1.5,0.7,2.2c0.7,0,2.2-0.7,2.9,0.7c0,0.7,1.4,1.5,0.7,2.2
		c-0.7,1.5,0.7,1.5,0.7,2.2c2.2,0.7,0.7,3,2.9,4.5c0.7,1.5-2.2,1.5-1.4,3.7c0,0.7-0.7,1.5-0.7,2.2c-1.4,1.5-2.2,2.2-3.6,2.2
		c-0.7,0.7,0,1.5-0.7,2.2c-1.4,0.7-2.9,0.7-4.3,0.7c-2.2,0-4.3,0-6.5,0c-0.7,0,0,0-0.7,0H250c-0.7,0.7-0.7-0.7-1.4-0.7
		s0-1.5-0.7-2.2c-1.4,0-2.2,0-2.9,0c-1.4-1.5-2.2-3.7-2.2-5.2c-0.7-0.7-0.7-0.7-0.7-1.5c0-0.7,0.7-0.7,0.7-1.5c0-1.5,0-3,0.7-3.7
		c0.7-0.7,0.7-1.5,1.4-1.5v-0.7c0,0,0-0.7,0-1.5c0.7-0.7,0.7-3,2.9-2.2c-0.7-0.7,0.7-0.7,0.7-0.7c0-2.2,1.4-4.5,0-6.7
		c0-2.2-0.7-4.5,0-6c-0.7-0.7-0.7-0.7-1.4-1.5c0.7-0.7-1.4-1.5-0.7-2.2c-1.4-0.7-1.4-2.2-2.2-3.7c-0.7-0.7,0-3-0.7-3.7
		c0.7-0.7,0-2.2,1.4-3c-0.7-1.5,0.7-1.5,0.7-3c-0.7,0,0,0-0.7,0c0,0,0,1.5-0.7,1.5c-1.4,0-1.4-1.5-2.2-1.5c-0.7-0.7-0.7-2.2-2.2-2.2
		c0-1.5-1.4-1.5-0.7-3c0-1.5,1.4-2.2,1.4-3.7c0.7-1.5,2.9-1.5,3.6-3.7c0.7-1.5,2.2-0.7,2.9-1.5c1.4-0.7,2.2,2.2,4.3,1.5h1.4
		c0-0.7,0.7-0.7,0.7-1.5c0-1.5-0.7-2.2,0-3.7c0.7-0.7,2.2,0,2.2-0.7c0.7,0.7,1.4-0.7,2.2,0C258.6,222.6,259.4,223.4,260.1,222.6
		L260.1,222.6z M261.5,223.4c0.7,0.7,0.7,1.5,0,2.2c1.4,0.7,3.6,0.7,4.3,2.2c0,1.5,1.4,2.2,0,3c-0.7,0,0,1.5-0.7,0.7
		c-0.7,0-0.7-0.7-0.7-0.7l1.4-1.5c-0.7,0-1.4,0-1.4,0.7c-0.7,0-0.7-0.7-1.4-0.7c0.7-0.7,0.7-0.7,1.4-0.7c0,0,0.7,0.7,0.7,0
		c-0.7,0-0.7-1.5-1.4-0.7c-0.7,0.7-0.7,1.5-1.4,1.5c0-0.7,0.7-1.5,0.7-1.5c1.4-0.7,1.4,0,2.2,0.7c0.7-0.7-0.7-1.5-0.7-1.5
		c-1.4-0.7-2.2,0.7-2.9,1.5c-0.7,0.7,0.7,1.5,0,2.2h-1.4c0-0.7,0.7-1.5,0-2.2c0-0.7-0.7-1.5-1.4-1.5c-1.4,0-2.2,0.7-2.2,1.5l0.7-0.7
		c0.7-0.7,1.4,0,1.4,0c0,0.7,0.7,0.7,0.7,1.5c-0.7-0.7-1.4-2.2-2.2-1.5c0,0.7-1.4,0.7-0.7,1.5c0.7,0,0.7-0.7,1.4-0.7l0.7,0.7
		c0,0.7-1.4,0.7-1.4,0.7c-0.7-0.7-0.7-0.7-1.4-0.7c0.7,0.7,1.4,0.7,2.2,1.5c-0.7,0-0.7,0.7-1.4,1.5c0,0.7,0,1.5,0.7,2.2h0.7
		c0-0.7-0.7,0-0.7-0.7c0.7,0.7,2.2,0,2.9-0.7c0.7-0.7-0.7,0.7-1.4,0c0,0.7-0.7,0.7-0.7,0c-0.7,0-1.4,0-0.7-0.7
		c0,0.7,1.4,0.7,2.2,0.7c-0.7,0-1.4-0.7-2.2-1.5h0.7c0,0.7,0.7,1.5,1.4,0.7c0,0,0,0.7,0.7,0c-0.7,0-1.4,0-2.2-0.7
		c0-0.7,0.7-0.7,0.7-0.7c0,0.7,0,0.7,0.7,1.5c0.7,0,1.4,0.7,2.2,0h0.7h-0.7c0.7,0.7,1.4,0.7,2.2,0.7c0.7,0,0.7-0.7,1.4-0.7
		c0,0.7-0.7,0.7-0.7,0.7c-1.4,0.7-2.2,0-2.9-0.7v0.7c0,0.7,0.7,0.7,1.4,0.7c0.7,0,2.2,0,2.2-0.7c0,0,0-0.7,0.7-0.7v0.7v0.7
		c-0.7,0.7,0,1.5-0.7,2.2c0-0.7,0,0-0.7,0l0.7-0.7c0-0.7,0.7-1.5,0.7-2.2c-0.7,0.7-1.4,1.5-2.2,1.5c-1.4,0-2.2-0.7-2.9-1.5
		c-0.7,0.7-2.2,2.2-3.6,1.5c0,0-0.7-0.7-1.4-0.7c0.7,0,0,1.5,0.7,2.2c0.7,0,1.4,0,1.4,0.7v0.7c-0.7,0-0.7-1.5-2.2-1.5
		c0-0.7,0.7-1.5,0-2.2c0-0.7,0.7-0.7,0.7-1.5c0-1.5-2.2-1.5-0.7-3c0-0.7,0-1.5,0-1.5c1.4-1.5,2.9-2.2,5.1-2.2h0.7
		C261.5,224.9,260.8,223.4,261.5,223.4L261.5,223.4z M263.7,223.4c-0.7,0.7-0.7,1.5-0.7,2.2c-0.7-0.7-0.7-1.5,0-1.5
		C263,223.4,263,223.4,263.7,223.4L263.7,223.4z M259.4,224.1v1.5c-0.7-0.7-0.7-1.5-0.7-2.2C259.4,223.4,259.4,224.1,259.4,224.1
		L259.4,224.1z M265.9,224.1c0.7,0.7-1.4,0.7-0.7,2.2c0.7-0.7,0.7,0,1.4,0c-0.7-0.7-0.7-0.7-0.7-1.5h0.7c0,1.5,1.4,2.2,0,3
		c0.7,0.7,0.7,1.5,1.4,2.2c0,0.7-0.7,0.7,0,1.5v3v0.7l-0.7-0.7v1.5c0,0-0.7,0-0.7-0.7c0,0-0.7-0.7,0-1.5c0-0.7,0-0.7,0-1.5
		c0.7,0,0.7-1.5,0.7-2.2l-1.4-1.5c0.7-0.7,0.7-1.5,0-2.2c-0.7,0-1.4,0-1.4-0.7v-0.7h0.7c0-0.7,0-0.7,0-0.7c-0.7,0-0.7,0-1.4,0
		c0,0,0.7,0,0.7-0.7C265.1,223.4,265.9,223.4,265.9,224.1L265.9,224.1z M257.9,224.1v1.5c0-0.7-0.7-0.7-0.7-1.5H257.9z M257.2,225.6
		c0,0-0.7-0.7-1.4-0.7c0,0.7,0.7,0.7,0.7,0.7l-0.7-0.7c0,0.7,0,0.7-0.7,0.7c0.7,0,0.7,0.7,0.7,0.7v-0.7v1.5c0,0.7-0.7,1.5-0.7,2.2
		c-1.4,1.5,1.4,4.5-0.7,4.5h-0.7c0.7-0.7,0-1.5,0-2.2h0.7v0.7h0.7c0-0.7-0.7-1.5-1.4-2.2c0-0.7,0-1.5,0.7-2.2c0.7,0,0.7,2.2,0.7,0.7
		c0-0.7-0.7-1.5,0-2.2h-0.7c0-0.7,0-1.5,0.7-1.5c0.7-0.7,0.7,0,0.7-0.7C256.5,224.1,257.2,224.9,257.2,225.6L257.2,225.6z
		 M276,229.3c0,0,0,0.7,0.7,0.7h0.7c0,0,0,0.7-0.7,1.5c-0.7,0-0.7-0.7-1.4,0c0,0.7,1.4,2.2,0,2.2c-0.7,0-0.7,0.7-0.7,0.7
		c-0.7,0.7,0,0.7,0,1.5c-0.7,0-0.7-0.7-0.7-0.7c-0.7-2.2,2.2-1.5,1.4-3v-0.7c0,1.5-2.9,0.7-2.2,3h-0.7c0-1.5,0.7-2.2,0.7-3
		s0,0-0.7,0v-0.7c0-1.5,0.7-2.2,1.4-2.2C274.5,228.6,276,228.6,276,229.3z M249.3,231.6c0,0.7-0.7,0.7,0,1.5c-0.7,0.7,0,1.5-0.7,2.2
		c-0.7,0.7-0.7,0-0.7-0.7c0,0.7,0.7,0.7,0.7,1.5v0.7c-0.7,0-0.7-0.7-1.4-0.7c-0.7,0-0.7,0-0.7-0.7c0.7,0.7,0.7,0.7,0.7,0.7
		c0-0.7,0.7-0.7,0-0.7c0-0.7-0.7-0.7-0.7-0.7c0.7,0,1.4-0.7,1.4-1.5c0-0.7,0-1.5-0.7-2.2c-0.7,0-0.7,0-0.7,0
		c0.7,0.7,0.7,1.5,0.7,2.2l-0.7,0.7c0-0.7,0.7-0.7,0-1.5c0-0.7-2.2,0-2.2-2.2c0.7-0.7,2.2,0.7,1.4-0.7h0.7c0,0,0.7-0.7,1.4-0.7
		C249.3,228.6,249.3,230.1,249.3,231.6z M251.4,230.1c-0.7-0.7-0.7,0.7-1.4,0v-0.7C250,229.3,250.7,230.1,251.4,230.1z M252.9,230.8
		c-0.7,0-0.7,0-1.4-0.7C252.1,230.1,252.9,230.1,252.9,230.8z M271.6,230.1c0,0.7,0.7,2.2-0.7,3c-1.4-0.7-1.4,2.2-2.2,0
		c0-0.7,0.7-2.2,1.4-3C270.9,230.8,270.9,230.1,271.6,230.1z M263,231.6c0,0,0,0-0.7,0c0.7,0,0.7-0.7,0.7-0.7
		C263.7,230.8,263.7,231.6,263,231.6z M270.9,231.6c-0.7,0-1.4,0.7-1.4,0.7c0.7,0,0.7-1.5,1.4-1.5h0.7
		C271.6,231.6,271.6,231.6,270.9,231.6z M252.9,231.6c-0.7,1.5,0.7,1.5,0,2.2c0,0.7,0.7,1.5,0,1.5c0,0-0.7-0.7-0.7-1.5
		c0.7,0,0.7-0.7,0.7-1.5c-0.7-0.7-0.7-1.5-1.4-0.7c0.7,0.7,0.7,0.7,0.7,1.5v0.7c0-0.7-0.7-1.5-1.4-1.5c0,0-0.7,0-0.7-0.7v-0.7
		C250.7,230.8,252.1,230.8,252.9,231.6L252.9,231.6z M264.4,232.3c0,0-0.7,0-1.4,0h-0.7c0,0,0.7,0,1.4-0.7c0,0,0,0,0.7-0.7V232.3z
		 M281,232.3h-0.7c-0.7,0.7-1.4,1.5-1.4,3h1.4v1.5c-1.4-0.7-2.9-0.7-3.6,0v-0.7v-1.5c0.7-0.7,1.4,0,2.2,0c0,0,0,0,0-0.7
		c-0.7-1.5-2.9,0.7-2.2-1.5c0.7,0,0.7-1.5,2.2-0.7C279.6,231.6,280.3,231.6,281,232.3z M245.7,232.3v0.7c0,0.7-1.4,0-1.4,0.7
		c0.7,0.7,1.4,0.7,1.4,1.5c0.7,0.7-0.7,2.2,0,3v2.2c-1.4,0.7-1.4,1.5-2.2,2.2c-0.7-0.7,0-1.5-0.7-1.5c0-0.7,0.7,0,1.4,0
		c0.7-0.7,0.7-1.5,0.7-2.2c-0.7-0.7-1.4-1.5-1.4-2.2c0.7,0,0.7,0.7,1.4,0v-0.7c0,0-0.7,0.7-0.7,0c-0.7,0-1.4,0-2.2,0
		c0-0.7,0-1.5,1.4-1.5c0-0.7-0.7-1.5-0.7-1.5c-0.7-0.7-1.4,0-1.4,0.7c-0.7,0,0,0.7,0,1.5l0.7-0.7c0,1.5-2.2,1.5-1.4,3
		c-0.7,0-0.7,0.7-0.7,0c-1.4-0.7,0.7-1.5,0.7-3c-0.7-2.2,2.2-1.5,2.9-3C244.2,231.6,244.9,232.3,245.7,232.3L245.7,232.3z
		 M251.4,233.8c0,0.7,0.7,1.5,0.7,2.2c-0.7,0-0.7,0-0.7,0c0-0.7,0-1.5-0.7-1.5c0,0-0.7,0-1.4-0.7v-1.5
		C250,233.1,250.7,233.1,251.4,233.8L251.4,233.8z M268,232.3c-0.7,0-0.7,0.7-0.7,0.7h0.7c-0.7,0,0,0.7-0.7,0c0.7,0.7-0.7-0.7,0-0.7
		H268z M279.6,233.1h-0.7c0.7,0,0.7-0.7,0.7-0.7V233.1z M271.6,234.6c-1.4-0.7-2.2,2.2-2.2,0.7c0-0.7,0.7-1.5,0.7-1.5
		c0.7,0,1.4,0,1.4-0.7V234.6z M283.2,236.8h-0.7c0,0-0.7-0.7-1.4-0.7c0,0,0-0.7-0.7-0.7h0.7c0.7-0.7,0-1.5,0-1.5
		C281,235.3,283.2,235.3,283.2,236.8z M242,233.8C242,233.8,242,234.6,242,233.8z M280.3,233.8c0.7,0,0,0.7,0,0.7h-0.7
		C279.6,233.8,280.3,233.8,280.3,233.8z M268.7,236.8c0.7,1.5-0.7,2.2,0,3v-0.7l0.7-0.7c0,0.7,0,1.5-0.7,2.2v0.7
		c0.7,0,0.7,0,1.4-0.7c0,1.5-1.4,2.2-0.7,3l0.7-0.7c0.7,0.7-0.7,1.5,0,2.2c0,0,0.7-0.7,0.7-1.5c0.7,1.5,0,1.5-0.7,2.2
		c0,1.5,0,2.2,0.7,3c0.7,0.7,0.7,0.7,0.7,1.5c0,0.7-0.7,0.7-0.7,1.5v0.7c0,0-0.7,0-0.7-0.7c0-0.7,0.7-1.5,0.7-2.2
		c-0.7,0-0.7,0.7-0.7,0.7c0-0.7,0.7-2.2,0-3c0-0.7,0-2.2-0.7-3c0-0.7-1.4-1.5-0.7-3c-0.7-0.7-0.7-1.5-0.7-2.2c0-1.5,0.7-3,0.7-4.5
		V236.8z M255.8,236.1c0-0.7,0-0.7,0-1.5v2.2c0,0,0,0.7-0.7,0.7c0-1.5-1.4-1.5-1.4-2.2c0.7-0.7,1.4-0.7,1.4-0.7
		C255.8,234.6,255,235.3,255.8,236.1L255.8,236.1z M276,234.6c-0.7,0.7,0,2.2-1.4,2.2c-0.7,0-0.7,0.7-1.4,0.7c-0.7,0,0-0.7,0-1.5
		c0.7,0,1.4,0.7,2.2,0C275.2,235.3,275.2,234.6,276,234.6z M262.2,235.3c-0.7,0-0.7,0.7-0.7,0.7h-0.7c0,0,0,0,0.7,0.7
		C261.5,236.8,262.2,236.1,262.2,235.3c0.7,0.7,0,0.7,0,0.7c-0.7,0.7-1.4,0.7-2.2,0c-0.7,0-0.7,0-0.7-0.7h1.4
		C260.8,234.6,261.5,235.3,262.2,235.3z M270.9,236.8c-0.7,0-0.7-0.7-0.7-0.7c0-0.7,0.7-0.7,1.4-0.7
		C271.6,235.3,272.3,236.8,270.9,236.8z M252.1,236.8c0,0,0,0.7-0.7,0.7c-0.7,0-0.7-0.7-0.7-0.7c-0.7,0-0.7,0-1.4,0l0.7-1.5
		C250.7,235.3,250.7,237.6,252.1,236.8z M261.5,237.6c0.7-0.7,1.4-1.5,2.2-1.5c0,0.7,0.7,1.5,0,2.2c-0.7,0-1.4,0-2.2,0h0.7
		c-0.7-0.7-1.4,0-2.2,0s-1.4,0.7-2.2-0.7l0.7-2.2C259.4,236.1,260.1,237.6,261.5,237.6z M253.6,236.8c-0.7,0.7,0,0.7-0.7,1.5
		c0-0.7-0.7-1.5-0.7-2.2C252.9,236.1,252.9,236.8,253.6,236.8z M260.8,236.1c0,0.7-0.7,0-0.7,0H260.8z M242,237.6c0,0,0,0.7-0.7,0.7
		c0,0,0,0-0.7,0h-0.7c0.7-0.7,1.4-0.7,2.2-1.5h0.7C242.8,236.8,242.8,236.8,242,237.6z M263,237.6l0.7-0.7
		C263.7,236.8,263.7,237.6,263,237.6z M267.3,237.6c0.7,1.5-1.4,1.5-1.4,2.2h-0.7c0.7-0.7-0.7-0.7,0-1.5c0-0.7,0.7-0.7,0.7-0.7
		c0.7,0.7,0,0.7,0.7,1.5c0-0.7,0.7-0.7,0-0.7v-0.7v-0.7C266.6,236.8,267.3,236.8,267.3,237.6z M282.5,237.6v0.7
		c-0.7-0.7-0.7-1.5-1.4-1.5C281.7,236.8,281.7,236.8,282.5,237.6z M247.8,237.6c0,0.7,1.4,1.5,0,3c0.7-0.7,0-1.5,0-2.2
		c-0.7,0-1.4-0.7-1.4-0.7v-0.7C246.4,236.8,247.1,237.6,247.8,237.6L247.8,237.6z M276.7,239.1c0,0,0,0.7,0.7,1.5l1.4-0.7
		c-0.7,0.7,0.7,2.2,0,2.2c-1.4,0-1.4-2.2-2.2-1.5c-0.7-0.7,0-2.2,0-3c0,0,0.7,0,0.7-0.7C278.1,237.6,277.4,238.3,276.7,239.1
		L276.7,239.1z M251.4,239.1c0-0.7,0.7,0,0.7,0s0,0.7-0.7,0.7c-0.7,0-0.7-0.7-0.7-0.7c-0.7,0-1.4-0.7-1.4-0.7v0.7
		c0,0.7,1.4,0.7,2.2,1.5v0.7c0,0,0,0.7-0.7,0.7c0-1.5-2.2-0.7-1.4-3c0,0,0,0-0.7-0.7l0.7-1.5C250,238.3,250.7,238.3,251.4,239.1
		L251.4,239.1z M278.1,238.3c0-0.7,0-0.7,0.7-1.5C278.8,237.6,278.8,237.6,278.1,238.3z M248.5,237.6h-0.7H248.5z M255.8,238.3h0.7
		c0,0.7,0,0,0.7,0c0,0.7-0.7,0.7-0.7,0.7l-0.7,1.5c-0.7-0.7,0-2.2-1.4-2.2c0-0.7,0-0.7,0-0.7l0.7,0.7c0.7,0,0.7-0.7,0.7-0.7V238.3z
		 M271.6,238.3c-0.7,0-0.7,0.7-1.4,1.5c-0.7-0.7,0.7-1.5,0.7-2.2h0.7V238.3z M275.2,239.1c-0.7,0.7-2.2,0.7-1.4,1.5
		c-0.7,0-0.7-0.7,0-0.7c0-0.7,0.7-0.7,0.7-1.5l0.7-0.7V239.1z M281,238.3l-0.7-0.7h0.7V238.3z M244.2,239.1h-0.7
		c0.7,0-0.7-0.7,0-1.5C243.5,238.3,244.2,238.3,244.2,239.1z M241.3,238.3h-0.7v-0.7C241.3,237.6,241.3,237.6,241.3,238.3z
		 M242.8,238.3H242l0.7-0.7V238.3z M252.9,239.1c0.7,0,0.7,0,0.7-0.7v0.7c-0.7,0.7,0.7,1.5-0.7,2.2c0.7,1.5-0.7,1.5-0.7,3
		c-0.7,0.7,0,1.5-0.7,2.2c0.7,1.5-0.7,2.2,0,3v0.7c0-0.7-0.7-2.2-0.7-3v-0.7c0,0,0.7,0.7,0.7,0c0-0.7-0.7-1.5,0-2.2v0.7
		c0.7-0.7,0-1.5,0-2.2v-0.7c0.7,0,0.7,0.7,0.7,0.7c0-0.7,0-1.5,0-2.2s0,0.7,0.7,0.7c0.7-0.7-0.7-1.5-0.7-3
		C252.9,238.3,252.9,239.1,252.9,239.1L252.9,239.1z M281,239.1c0,0,0,0-0.7,0l0.7-0.7V239.1z M242.8,238.3v0.7V238.3z M278.1,239.1
		h0.7c0,0.7,0.7,0,0.7,0.7c0,0.7,0.7,0.7,0,0.7c0,0,0-0.7-0.7-0.7c-0.7,0-1.4,0-1.4-0.7H278.1z M248.5,241.3c0,0.7,0,1.5-0.7,1.5
		c0.7-1.5-1.4-2.2-1.4-3.7C247.8,239.8,247.1,241.3,248.5,241.3z M264.4,241.3l-0.7,0.7c0-0.7,0-1.5,0-2.2v0.7l0.7-1.5
		C265.1,239.8,264.4,240.6,264.4,241.3z M272.3,239.1c0.7,1.5-1.4,0.7-1.4,2.2c0-0.7,0.7-0.7,0.7-1.5L272.3,239.1z M242,239.8h0.7
		v0.7c0,0-0.7-0.7-0.7,0c0-0.7-0.7-0.7,0-1.5V239.8z M257.2,239.8c0.7,0,0.7,0,1.4,0.7v-0.7c0,0.7-0.7,1.5,0,2.2
		c-0.7,0-1.4-0.7-1.4-0.7c0-0.7-1.4-0.7-0.7-1.5H257.2z M263,240.6v0.7c-0.7,0.7-0.7,0.7-1.4,0.7v-0.7c0,0,0,0,0-0.7
		c0-0.7,0,0,0.7-0.7C262.2,240.6,262.2,240.6,263,240.6z M260.1,240.6h0.7c-0.7,0-0.7,0-0.7,0.7c0,0,0.7,0,0.7,0.7
		c-0.7,0-1.4,0-1.4-0.7c0,0-0.7-0.7,0-0.7H260.1z M255,241.3v-0.7V241.3z M275.2,242.8h0.7c0.7,0,0,0.7,0,1.5h0.7
		c-0.7,0-0.7,0-1.4-0.7C276,243.6,276,242.8,275.2,242.8c-0.7,0.7-0.7,0-0.7,0c0-0.7,0-2.2,0.7-2.2
		C276,241.3,273.8,242.8,275.2,242.8z M250.7,243.6c0,0-0.7,0.7-0.7,0v-0.7c-0.7-0.7-1.4-1.5-1.4-2.2h0.7
		C250,241.3,250.7,242.1,250.7,243.6L250.7,243.6z M267.3,242.1v-0.7C267.3,241.3,268,241.3,267.3,242.1z M273.1,242.1
		c-0.7,0-1.4,0-1.4,0.7c0.7,0,1.4,0,2.2-0.7c0.7,1.5-1.4,1.5-1.4,3h0.7c0-0.7,0.7-0.7,1.4-1.5c0,0.7,0.7,0.7,0,0.7
		c0,0.7-0.7,1.5-0.7,2.2h0.7c0.7,0,0-1.5,1.4-1.5c0,1.5-2.2,1.5-0.7,3c0.7,0,0.7-0.7,0.7-0.7l0.7-1.5c0.7,0.7-1.4,2.2,0,3l0.7-1.5
		c0.7,1.5-1.4,2.2,0,3c-0.7,0-0.7-0.7-1.4-1.5s-1.4-1.5-2.2-2.2c0-0.7-1.4-0.7-1.4-2.2c0-0.7-1.4-1.5-0.7-2.2
		C271.6,241.3,273.1,240.6,273.1,242.1L273.1,242.1z M247.1,242.1c0,0-0.7,0-0.7,0.7c0,0.7,2.9,1.5,0.7,2.2
		c-0.7,0.7,0.7,0.7,0.7,2.2c-0.7,0-0.7,0-1.4,0c0-0.7,0.7-0.7,0-1.5c0,0-0.7-0.7-0.7-1.5c0.7,0,0.7,0.7,1.4,0.7v-0.7
		c-0.7-0.7-1.4-1.5-0.7-2.2C245.7,241.3,247.1,242.1,247.1,242.1z M265.9,242.8c0,0-0.7-0.7,0-0.7
		C265.9,242.1,266.6,242.8,265.9,242.8z M255.8,243.6c0,0,0,0-0.7,0c-0.7-0.7,0.7-0.7,0.7-1.5C256.5,242.1,256.5,242.8,255.8,243.6z
		 M255,242.1l-0.7,0.7v-0.7H255z M253.6,242.1v1.5V242.1z M268,243.6c0,0,0.7,0.7,0,0.7c0-0.7-0.7-0.7-0.7-1.5
		C268,242.8,268,242.8,268,243.6z M258.6,242.8c-0.7,0.7-1.4,1.5-1.4,2.2c-0.7,0-0.7-0.7-0.7-0.7c0.7-0.7,0.7-2.2,1.4-1.5H258.6z
		 M265.9,244.3v0.7c0-1.5-2.2-0.7-2.2-2.2C264.4,242.8,264.4,244.3,265.9,244.3z M263.7,245.1c0.7,0,0.7,0.7,0,0.7
		c0-1.5-2.2-1.5-2.2-3c0,0.7,0.7,0,0.7,0C263,243.6,263.7,244.3,263.7,245.1z M250,244.3c0.7,0.7,0.7,0.7,0.7,1.5
		c-0.7,0-1.4,0-1.4,0.7c0,0,0.7,0.7,0.7,1.5c0,0-0.7,0-1.4,0c0.7,0.7,0.7,0.7,0.7,1.5c0,0.7-0.7,0.7-0.7,0.7c0,0.7,0.7,0.7,0.7,1.5
		c-0.7,0.7-0.7,0.7-0.7,0.7c0-0.7,0-0.7,0-1.5c-0.7,0-1.4,0-1.4-0.7c0-0.7,0-0.7,0-0.7l1.4,0.7c0,0,0.7-0.7,0-1.5c0,0-0.7,0-0.7-0.7
		v-0.7c0.7,0,0.7,0.7,1.4,0c0-0.7-0.7-0.7-1.4-1.5c0.7,0,0-0.7,0.7-0.7c0,0,0,0.7,0.7,0.7c0.7-0.7-2.2-2.2,0-3
		C249.3,243.6,249.3,244.3,250,244.3z M260.1,242.8c0.7,0.7,0,1.5,0,1.5c-0.7,0.7-1.4,0.7-1.4,0.7h-0.7
		C258.6,244.3,259.4,242.8,260.1,242.8z M267.3,244.3c0,0,0,0.7-0.7,0.7c0.7-0.7-1.4-1.5,0-2.2L267.3,244.3z M254.3,244.3
		c0.7,0.7-0.7,0.7-0.7,0.7c0-0.7,0-0.7,0.7-1.5V244.3z M252.9,244.3c0.7,0,0,0.7,0,0.7C252.1,245.1,252.9,244.3,252.9,244.3z
		 M263.7,247.3c0,0.7,0,0.7-0.7,0.7c0-0.7-0.7-1.5-0.7-1.5c-0.7,0-1.4-0.7-1.4-1.5c0,0,0.7,0,0.7-0.7
		C262.2,245.1,263,245.8,263.7,247.3L263.7,247.3z M255.8,245.1c0,0.7-0.7,1.5-0.7,2.2c0-0.7,0-0.7,0-1.5c0-0.7,0.7-0.7,0.7-1.5
		V245.1z M268.7,245.1c0,0,0,1.5-0.7,1.5C268,245.8,268.7,245.8,268.7,245.1c-0.7,0-0.7,0.7-1.4,0.7c0,0,0.7,0.7,0,0.7
		c0,0-1.4-0.7-0.7-1.5l0.7,0.7C267.3,245.1,268,244.3,268.7,245.1z M266.6,247.3h-0.7c0-0.7-1.4-0.7-0.7-2.2
		C265.1,245.8,266.6,246.6,266.6,247.3z M260.8,245.8c0,1.5-2.2,1.5-1.4,3h-1.4c0-0.7,0-0.7,0-1.5c1.4,0,0.7-2.2,2.2-1.5H260.8z
		 M271.6,248.1l0.7-1.5c1.4,1.5-0.7,3,0.7,3.7c0-0.7,0.7-1.5,0.7-2.2c1.4,1.5-1.4,2.2,0,3.7c-0.7,0-0.7-1.5-1.4-1.5
		c-0.7-1.5,0-2.2-1.4-2.2c0-0.7,0-1.5,0-1.5l0.7-0.7C272.3,246.6,270.9,247.3,271.6,248.1z M246.4,248.8c0.7,0,0,0.7,0,0.7
		c0-1.5-2.2-2.2-1.4-3.7C246.4,246.6,245.7,248.1,246.4,248.8z M252.9,246.6c0,0,0,0.7-0.7,0c0,0,0.7,0,0.7-0.7V246.6z M257.2,245.8
		c0,0.7-0.7,1.5,0,2.2c-0.7,0-0.7,0-0.7-0.7c0-0.7,0-0.7,0-1.5L257.2,245.8z M254.3,247.3l-0.7,0.7c-0.7-0.7,0-1.5,0.7-2.2V247.3z
		 M265.9,249.6c-0.7,0,0-0.7-0.7-1.5c-0.7,0,0-0.7-0.7-1.5h0.7C264.4,248.1,266.6,248.1,265.9,249.6z M262.2,248.1
		c0.7,0.7,2.9,1.5,0.7,2.2c0-0.7,0-1.5-0.7-1.5c0,0-0.7-0.7-1.4-0.7v-0.7C261.5,247.3,262.2,247.3,262.2,248.1z M269.5,247.3
		c0,0.7-0.7,0.7-0.7,0.7v-0.7C268.7,246.6,269.5,246.6,269.5,247.3z M252.9,248.8c-0.7-0.7-0.7-0.7,0-1.5V248.8z M255.8,247.3
		c0,1.5-0.7,1.5,0,2.2c-0.7,0-0.7,0-0.7,0C255,248.8,255.8,248.1,255.8,247.3z M261.5,249.6c0.7,0,1.4,0,1.4,0.7s0.7,0.7,0.7,0.7
		c0.7,0.7,0,0.7,0,1.5H263c0.7-0.7,0-1.5-0.7-1.5c-1.4-0.7-1.4-1.5-2.2-2.2c0,1.5-1.4,1.5-0.7,2.2c-0.7,0.7-0.7,0-0.7,0
		c-0.7-1.5,1.4-1.5,0.7-3c0.7,0,0.7,0,1.4-0.7C260.1,248.1,260.8,248.8,261.5,249.6z M268,248.8v0.7c0-0.7-2.2-1.5-0.7-1.5
		L268,248.8z M257.9,249.6c-0.7,0.7-1.4,0.7-1.4,1.5h0.7h-0.7c0,0,0-0.7,0-1.5l0.7-1.5C257.2,248.1,257.9,248.8,257.9,249.6z
		 M245.7,250.3v0.7c0-1.5-1.4-1.5-0.7-3C245.7,248.1,245.7,249.6,245.7,250.3z M253.6,250.3c-0.7-0.7,0-1.5,0.7-1.5
		C254.3,248.8,253.6,249.6,253.6,250.3z M269.5,248.8v0.7c-0.7,0-1.4-0.7-0.7-0.7C269.5,248.1,269.5,248.8,269.5,248.8z
		 M250.7,250.3v0.7c0.7-1.5-0.7-1.5,0-2.2C250.7,249.6,251.4,249.6,250.7,250.3L250.7,250.3z M265.9,251.8l-0.7,0.7
		c0.7,0,0.7,0.7,0.7,0.7v0.7c0-0.7-0.7-1.5-0.7-1.5c-0.7,0,0-1.5-0.7-1.5c0.7,0,0.7,0.7,0.7,0.7H265.9c0-1.5-1.4-1.5-1.4-3
		C265.1,249.6,266.6,250.3,265.9,251.8z M252.9,249.6c-0.7,0-0.7,0-0.7,0S252.1,248.8,252.9,249.6z M275.2,252.6
		c0.7-0.7,0.7-1.5,1.4-2.2v1.5c-0.7,0-0.7,0.7-0.7,1.5h0.7c-0.7,0.7-1.4,0-2.2-0.7c0,0-0.7-1.5,0-2.2l0.7-0.7
		C276,250.3,274.5,251.8,275.2,252.6L275.2,252.6z M268,251.8c0-0.7-2.2-1.5-1.4-2.2C267.3,250.3,268,251.1,268,251.8z M250,251.1
		h-0.7v-0.7C250,250.3,250,250.3,250,251.1z M254.3,250.3c0.7,0.7,0,0.7,0,1.5c0,0,0,0.7-0.7,0.7
		C253.6,251.8,253.6,251.1,254.3,250.3L254.3,250.3z M255.8,250.3c0,0.7-0.7,1.5,0,2.2H255C255,251.8,255.8,251.1,255.8,250.3z
		 M244.9,251.1c0.7,0,0.7,0.7,0.7,1.5c-0.7,0,0-0.7-0.7-0.7c0-0.7-0.7-0.7,0-1.5V251.1z M252.9,252.6c-0.7-0.7-0.7-1.5-0.7-2.2
		C252.9,251.1,252.9,251.8,252.9,252.6z M268.7,251.1v0.7v-1.5V251.1z M270.2,254.1c0,1.5-1.4,1.5-1.4,3c1.4,0,1.4,1.5,2.2,1.5
		c1.4,3,0.7,6.7,0.7,9.7c0,0,0,0.7,0.7,0.7c0-3,0.7-6,0-9.7c0.7,0,0.7,0.7,0.7,0.7c0.7,3-0.7,6,0,8.2c0.7,1.5,0,3,0.7,3.7
		c0,0,0,0,0-0.7c-0.7,0.7,0,1.5,0.7,1.5c-1.4,0-1.4-2.2-2.2-3c0,1.5,0,3,1.4,3.7c0.7,0,0,0.7,0.7,0.7c0,0.7,1.4,0.7,0.7,1.5v0.7
		c0-0.7,0-0.7,0-0.7c-0.7,0-0.7,0-0.7,0c0-0.7,0-1.5-0.7-1.5c0,0.7,0,1.5-0.7,1.5c-0.7-0.7-0.7-0.7-1.4-1.5
		c-0.7-2.2-0.7-3.7-1.4-5.2c-3.6-3,0-8.2-1.4-12c0-0.7,0-1.5,0-2.2c1.4,0,0.7-1.5,1.4-2.2c0-0.7-0.7-1.5,0-1.5
		C269.5,251.8,270.9,253.3,270.2,254.1z M257.9,252.6c0,0-1.4,0.7-1.4,1.5c0-0.7,0-0.7,0-1.5c0.7-0.7,0.7-1.5,1.4-1.5V252.6z
		 M251.4,251.1v1.5C250.7,251.8,251.4,251.1,251.4,251.1C251.4,250.3,251.4,251.1,251.4,251.1z M272.3,252.6c0,0-0.7,0.7,0,1.5
		c-0.7,0-0.7-0.7-0.7-0.7c0-0.7,0-1.5,0.7-2.2C273.1,251.1,273.1,251.8,272.3,252.6z M263,253.3c0,0,1.4,0,0.7,0.7v0.7
		c0-0.7-1.4-1.5-2.2-2.2c0,0,0-0.7-0.7-1.5C261.5,251.8,263,251.8,263,253.3z M260.8,251.1c0.7,1.5-2.2,1.5-1.4,3l-0.7-0.7
		c0,0,0-0.7,0.7-0.7c0,0,0,0,0.7-0.7C260.1,251.8,260.1,251.1,260.8,251.1z M248.5,253.3c0,0.7-0.7,0.7-0.7,0.7c-0.7,0,0-0.7,0-0.7
		c-0.7-0.7-1.4-0.7-0.7-1.5C247.1,251.8,247.8,252.6,248.5,253.3z M251.4,252.6c-0.7,0,0,0.7-0.7,0.7c0-0.7,0-1.5-0.7-1.5
		C250.7,251.8,251.4,251.8,251.4,252.6z M268,252.6c-0.7,0.7,0,0.7-0.7,0.7c0,0-1.4-0.7-0.7-1.5C267.3,252.6,267.3,252.6,268,252.6z
		 M273.8,253.3c0,0.7-1.4,1.5-0.7,2.2c-0.7-0.7-0.7-1.5-0.7-1.5C273.1,253.3,273.1,251.8,273.8,253.3L273.8,253.3z M255.8,254.8
		c-0.7-0.7,0-1.5,0-2.2V254.8z M268.7,253.3v0.7c0-0.7,0-0.7,0-1.5V253.3z M252.1,254.1c-0.7,0-0.7-0.7-0.7-1.5
		C251.4,253.3,252.1,253.3,252.1,254.1z M255,253.3c-0.7,0.7-0.7,0.7-0.7,0.7s0-0.7,0-1.5C255,252.6,255,253.3,255,253.3z
		 M252.9,254.8c0-0.7,0-1.5,0-1.5S253.6,254.1,252.9,254.8z M263,254.1v1.5h0.7c0,0.7,0,1.5-0.7,1.5c0-0.7,0-1.5-0.7-1.5
		c-0.7-0.7,0-1.5-0.7-2.2c-0.7,0.7-2.2,1.5-1.4,3c0-0.7,0,0,0,0c-0.7-0.7-0.7-0.7-0.7-1.5c0.7-0.7,0.7-1.5,1.4-1.5
		C261.5,253.3,262.2,254.1,263,254.1L263,254.1z M250.7,254.8c-0.7,0.7-0.7,0.7-0.7,0.7c0.7-1.5-1.4-1.5-0.7-2.2
		C250,254.1,250.7,254.1,250.7,254.8L250.7,254.8z M257.9,253.3c0.7,0.7-1.4,1.5-0.7,2.2c0.7,0,0.7-0.7,1.4-0.7
		c0.7,1.5-1.4,1.5-0.7,3v-0.7l0.7,0.7c-0.7,0-1.4,0-1.4,0c-0.7,0,0-0.7,0-1.5c0-0.7-1.4-0.7-0.7-1.5
		C257.2,254.1,257.2,253.3,257.9,253.3L257.9,253.3z M265.1,254.1c-0.7,0.7,1.4,1.5,0,2.2c0-0.7-0.7-1.5-0.7-2.2
		c0-0.7-0.7-0.7,0-0.7C264.4,253.3,265.1,253.3,265.1,254.1z M275.2,254.1c-0.7,0.7-0.7,1.5-0.7,2.2c-1.4-0.7,0-2.2,0-3
		C275.2,253.3,275.2,254.1,275.2,254.1z M247.8,255.6c-0.7,0-0.7,0.7-0.7,0c-0.7,0,0,0,0-0.7c-0.7-0.7-1.4-0.7-0.7-1.5
		C246.4,254.1,247.8,254.1,247.8,255.6L247.8,255.6z M270.9,254.1v1.5v0.7c0,0,0-0.7-0.7-0.7c0.7-0.7,0.7-1.5,0.7-2.2
		C270.9,253.3,271.6,254.1,270.9,254.1L270.9,254.1z M267.3,255.6c0,0-0.7,0-0.7,0.7c-0.7-0.7-0.7-0.7-0.7-1.5l0.7,0.7
		c0.7,0-0.7-0.7,0-1.5C267.3,254.1,267.3,254.8,267.3,255.6L267.3,255.6z M251.4,256.3c0,0,0,0-0.7,0c0-0.7,0.7-1.5,0.7-1.5V256.3z
		 M268,255.6v0.7c-0.7-0.7,0-1.5,0-1.5S268.7,255.6,268,255.6L268,255.6z M255.8,254.8v1.5C255.8,255.6,255.8,254.8,255.8,254.8z
		 M255,254.8c0,0.7,0,0.7-0.7,1.5c0-0.7,0-0.7,0-1.5H255z M249.3,256.3v0.7c-0.7,0,0-0.7-0.7-0.7c0.7,0,0-0.7,0-1.5
		C249.3,255.6,250,255.6,249.3,256.3z M252.9,256.3c1.4,1.5,0,3,0.7,3.7c0.7-0.7,0-2.2,0.7-2.2c0.7,1.5,0,3,0,4.5
		c0-0.7,0-2.2-0.7-1.5c0,2.2,1.4,5.2,0,7.5c0,0.7-0.7,0.7-0.7,1.5V269c-0.7,1.5-0.7,3.7-2.2,5.2c0,0.7,0,0.7,0.7,0.7
		c0,0.7-1.4,0-2.2,0.7l-0.7,0.7v-3c0.7,0,2.2,0.7,2.2,0c0.7-0.7,0.7-1.5,0.7-1.5c-0.7,0-0.7,0.7-0.7,0.7v-1.5
		c-0.7,0.7-0.7,0.7-0.7,1.5h-0.7c0.7-0.7,0.7-1.5,0.7-2.2h-0.7c0.7-3,1.4-6.7,0.7-9.7c0,0.7,0,3-0.7,4.5c0-2.2-0.7-4.5,0-6
		c0,0,0,0.7,0.7,1.5c0-0.7-0.7-3,0.7-2.2c0-1.5,1.4-1.5,1.4-3v-0.7C252.9,255.6,252.1,256.3,252.9,256.3L252.9,256.3z M262.2,257.1
		c0,0,0,0.7,0.7,0.7c-0.7,0-1.4,0-1.4-0.7c0-0.7,0-0.7,0-1.5c-0.7,0.7-1.4,1.5-1.4,2.2c-0.7,0.7-0.7,0-0.7,0c0-0.7,0-0.7,0-1.5
		c1.4,0.7,0.7-0.7,1.4-0.7C261.5,256.3,263,256.3,262.2,257.1L262.2,257.1z M254.3,256.3c-0.7,0-0.7,0-0.7-0.7
		S253.6,256.3,254.3,256.3z M272.3,257.1h0.7h0.7c0,0-1.4,1.5,0,1.5c-0.7,0.7-0.7,0-1.4-0.7h0.7c-0.7,0-1.4,0-1.4,0
		c-0.7-0.7,0-1.5,0-1.5l0.7-0.7C272.3,256.3,270.9,257.1,272.3,257.1z M270.2,256.3h-0.7v-0.7C270.2,255.6,270.2,255.6,270.2,256.3z
		 M250.7,257.1c0,0-0.7,0-0.7,0.7c-0.7-0.7,0-0.7,0-1.5C250.7,256.3,250,257.1,250.7,257.1z M248.5,257.1v0.7h-0.7c0,0,0-0.7,0-1.5
		C248.5,256.3,248.5,257.1,248.5,257.1z M266.6,257.1c1.4,4.5-2.2,9,0.7,13.5c0,0.7,0,1.5-0.7,2.2c0.7,0.7,1.4,0,1.4,0.7v1.5
		c-0.7-0.7-0.7-2.2-1.4-2.2c0-1.5-0.7-3-1.4-4.5v0.7c0,1.5,0.7,3,0,4.5c0,0.7,0.7,1.5,0,2.2c0,0,0-1.5-0.7-1.5v1.5
		c-0.7-0.7,0-1.5,0-2.2h0.7c-0.7-3,0-5.2,0-7.5c-0.7,0,0,0.7-0.7,1.5c-0.7,1.5,0,3.7-0.7,6c0-0.7,0-0.7,0-1.5
		c-0.7-2.2,0.7-4.5,0.7-6.7v-6v-0.7C265.9,258.6,265.9,255.6,266.6,257.1z M270.9,257.1v0.7l-0.7-0.7
		C270.2,256.3,270.9,256.3,270.9,257.1z M265.1,257.1c0,0-0.7,0-0.7,0.7c0-0.7,0-0.7,0-0.7H265.1z M260.8,259.3
		c-0.7-0.7,0-1.5,0-1.5C261.5,257.8,261.5,258.6,260.8,259.3z M257.2,258.6c0.7,1.5,0,3.7,0,5.2c0.7,1.5,0.7,3,1.4,3.7v0.7h-0.7
		c0,0.7,0.7,2.2,0,3v-1.5c-0.7,0.7,0,1.5-0.7,1.5c0,0,0-0.7-0.7-0.7c0,0.7,0,2.2-0.7,3v2.2V275c0-0.7,0-1.5,0-1.5
		c0-0.7,0.7-0.7,0.7-1.5s0-0.7,0-1.5c-0.7,0.7-0.7,1.5-0.7,1.5s0,0.7,0,0v-6.7c-0.7-2.2-0.7-5.2-0.7-7.5
		C255.8,257.8,256.5,257.8,257.2,258.6L257.2,258.6z M268,260c0,2.2,0,4.5-0.7,6.7c-0.7-3,0.7-6,0.7-9
		C268.7,258.6,268,259.3,268,260L268,260z M272.3,258.6h-0.7C271.6,258.6,272.3,257.8,272.3,258.6z M259.4,259.3v0.7
		c0,2.2,0,5.2-0.7,6.7c0-2.2-0.7-4.5-0.7-6.7c0-0.7,0-1.5,0.7-1.5L259.4,259.3z M263,258.6h-0.7H263z M263.7,259.3
		c0,1.5,0.7,4.5,0,6c-0.7-1.5-0.7-3.7-0.7-5.2C262.2,259.3,263,259.3,263.7,259.3L263.7,259.3z M262.2,261.5
		c-1.4,3.7,2.2,7.5,0,11.2c0,1.5,0.7,1.5,0.7,3c-0.7,0-2.2,0-2.9-0.7c-0.7-0.7,0-1.5-0.7-2.2c0.7-2.2,0-4.5,0.7-6.7c0-1.5,0-3,0-4.5
		c-0.7-0.7,0.7-0.7,0.7-0.7C261.5,260.8,262.2,260.8,262.2,261.5z M252.1,269.8c0-2.2,0.7-3.7,0.7-6v-3
		C253.6,263.8,252.9,266.8,252.1,269.8z M255,266c-0.7,2.2,1.4,6-0.7,6.7c-0.7-0.7,0-1.5,0-2.2c0-1.5,0.7-3,0.7-5.2V266z M268.7,269
		v3.7c-1.4,0-0.7-1.5-0.7-3c-0.7-0.7,0-1.5,0-2.2C268.7,267.5,268,268.3,268.7,269z M253.6,270.5c-0.7,0,0-0.7,0-1.5V270.5z
		 M270.2,272c-0.7,0-0.7-0.7-0.7-0.7v-1.5C270.2,270.5,269.5,271.3,270.2,272L270.2,272z M259.4,269.8v1.5c0,0-0.7-0.7-0.7-1.5
		H259.4z M258.6,273.5v0.7c0,0,0.7,0,0.7,0.7v0.7c0-0.7,0-0.7,0-0.7h-0.7c-0.7,0-0.7,0-0.7,0v0.7c0-0.7,0-0.7,0-1.5
		c0,0,0-0.7-0.7-0.7l-0.7,0.7c0.7,0.7,0.7,0.7,0.7,0.7s0-0.7-0.7,0c-0.7,0,0,0.7,0,0.7c-0.7-0.7-0.7-1.5,0-2.2c0,0,0,0,0-0.7
		c0.7,0,0.7,0.7,0.7,0l0.7-0.7C258.6,272,257.2,273.5,258.6,273.5L258.6,273.5z M268,272.8h-0.7V272C268,272,268,272.8,268,272.8z
		 M252.9,272c0.7,0.7,0,0.7,0,0.7V272z M270.2,272.8v0.7l-0.7-0.7H270.2z M255,272.8c0,0.7-0.7,1.5-0.7,2.2c-0.7,0-0.7-0.7-0.7,0
		c-0.7,0,0,0-0.7,0.7V275c0.7-0.7,1.4-0.7,1.4-2.2H255z M270.2,275v0.7C270.2,275,270.2,275,270.2,275c-0.7,0,0,1.5-0.7,0.7
		c0-1.5-0.7-1.5-0.7-3C269.5,273.5,269.5,275,270.2,275z M277.4,273.5c-0.7,0.7,0,0.7,0.7,1.5c0,0,0.7,0,0.7,0.7
		c-0.7,0-0.7-0.7-0.7-0.7l-0.7,0.7c-0.7-0.7-0.7-2.2-1.4-3C276.7,272.8,276.7,273.5,277.4,273.5z M247.1,272.8c0,1.5-0.7,2.2-0.7,3
		c-0.7,0-0.7,0-0.7-0.7c0.7,0,0.7-0.7,0.7-2.2H247.1z M253.6,273.5c0.7,0.7-0.7,0.7-0.7,0.7c-0.7,0,0,0,0,0L253.6,273.5z
		 M266.6,273.5c0,0-0.7,0.7,0,0.7c0,0,0.7,0,0.7,0.7v0.7c-0.7-0.7,0-0.7-0.7-1.5v0.7v0.7c-0.7,0-0.7-0.7-0.7-1.5
		C265.9,274.3,265.9,273.5,266.6,273.5z M247.8,273.5c0.7,0.7-0.7,1.5,0,3c-0.7,0-0.7,0-0.7,0v-0.7h-0.7V275h0.7
		C247.8,275,247.1,273.5,247.8,273.5z M276,273.5c0.7,0.7,0,1.5,0.7,1.5c-0.7,0-2.2-0.7-2.2-1.5H276z M271.6,275c0,0,0,0.7-0.7,0.7
		c0,0,0-0.7,0-1.5L271.6,275z M268.7,275c0,0,0,0-0.7,0l0.7-0.7V275z M255,274.3c-0.7,0.7,0.7,2.2-0.7,1.5
		C254.3,275,254.3,274.3,255,274.3z M248.5,275c0,0.7-0.7,0.7,0,0.7h-0.7V275H248.5z M246.4,276.5c-0.7,0-0.7,0-0.7,0s0,0,0-0.7
		C246.4,276.5,246.4,276.5,246.4,276.5z M276.7,276.5H276v-0.7h0.7V276.5z M277.4,275.8v0.7V275.8z M267.3,279.5
		c1.4,1.5,1.4,3.7,1.4,5.2c-0.7,3-2.9,4.5-5,5.2c-2.9,0.7-5.8-0.7-7.2-3c-0.7-2.2-0.7-5.2-0.7-6.7c1.4-2.2,2.9-3.7,5.1-3.7
		C263,275.8,265.9,276.5,267.3,279.5z M255.8,276.5l-0.7,0.7h-0.7C254.3,276.5,255,276.5,255.8,276.5z M256.5,276.5
		c-0.7,0-0.7,0.7-0.7,0.7C255.8,276.5,255.8,276.5,256.5,276.5z M257.9,276.5c-0.7,0-0.7,1.5-1.4,0.7l0.7-0.7H257.9z M268,277.3
		c-0.7,0-0.7-0.7-0.7-0.7S268,276.5,268,277.3z M269.5,277.3c-0.7,0.7-0.7-0.7-1.4-0.7C268.7,276.5,269.5,276.5,269.5,277.3z
		 M253.6,276.5c0,0,0.7,0.7,0,0.7c0,0.7-0.7,0-0.7,0L253.6,276.5z M267.3,277.3c-0.7,0.7-0.7-0.7-1.4-0.7
		C266.6,276.5,266.6,276.5,267.3,277.3z M270.2,277.3l0.7-0.7v0.7H270.2l-0.7-0.7C270.2,276.5,270.2,276.5,270.2,277.3z
		 M272.3,277.3c-0.7,0.7-0.7-0.7-1.4-0.7C271.6,276.5,272.3,276.5,272.3,277.3z M273.1,277.3c-0.7,0.7,0-0.7-0.7-0.7
		C272.3,276.5,273.1,276.5,273.1,277.3z M252.1,276.5c0.7,0,0,0.7,0,0.7c0,0.7,0,0-0.7,0.7c0-0.7,0-0.7,0-0.7
		C252.1,276.5,252.1,276.5,252.1,276.5z M274.5,277.3c0,0.7,0,0-0.7,0v-0.7L274.5,277.3z M276,277.3c-0.7,0.7-0.7,0-1.4-0.7h0.7
		C275.2,277.3,276,277.3,276,277.3z M250,276.5c0,0.7,0,0.7-0.7,1.5C249.3,277.3,249.3,276.5,250,276.5z M251.4,276.5
		c0,0.7-0.7,0.7-0.7,1.5C250,277.3,250.7,276.5,251.4,276.5z M248.5,276.5c0.7,0.7,0,0.7,0,1.5C247.8,277.3,248.5,277.3,248.5,276.5
		z M276.7,277.3v0.7l-0.7-1.5C276.7,276.5,276.7,277.3,276.7,277.3L276.7,277.3z M267.3,280.3c1.4,1.5,0.7,4.5,0,6
		c-1.4,2.2-4.3,3-6.5,3c-0.7,0-1.4-0.7-2.9-1.5c-1.4-1.5-2.2-3.7-1.4-6.7c0-1.5,2.2-3,3.6-3.7C263,276.5,265.9,277.3,267.3,280.3
		L267.3,280.3z M277.4,277.3v0.7V277.3z M246.4,278c0-0.7,0-0.7,0-0.7V278z M278.8,277.3v0.7c-0.7,0-0.7-0.7-0.7-0.7H278.8z
		 M263,277.3l-0.7,4.5v-4.5C262.2,278,263,277.3,263,277.3z M245.7,278v-0.7V278z M261.5,281.8c0-1.5-0.7-3-0.7-4.5h0.7V281.8z
		 M264.4,278c-0.7,1.5-1.4,2.2-1.4,3.7c0-1.5,0-3,0.7-4.5C263.7,278,264.4,278,264.4,278z M244.9,278C244.2,278,244.9,278,244.9,278
		z M260.1,278c0.7,0.7,0.7,2.2,1.4,3.7c-0.7-1.5-1.4-3-2.2-3.7H260.1z M270.9,279.5c0.7,0,0.7-0.7,0.7-0.7V278c0.7,0,0,0.7,0.7,0.7
		c0.7,0.7,0,0.7,0.7,1.5c-0.7,0.7-0.7,0.7-1.4,1.5c-0.7,0,0,0.7-0.7,0.7c0,0-0.7,0.7-0.7,0c0,0,0.7,0,0.7-0.7c-0.7,0-0.7,0.7-1.4,0
		h0.7c0-0.7-0.7-1.5,0-2.2c0.7-0.7-0.7-1.5,0-1.5C270.9,278,270.2,278.8,270.9,279.5L270.9,279.5z M269.5,278c0.7,0.7,0,1.5,0,3
		c-0.7,0-0.7-1.5-1.4-2.2l-0.7-0.7L269.5,278z M249.3,278.8c-0.7,0.7,0,1.5,0,1.5c0.7,0.7,0.7,1.5,0.7,3c0.7,0.7,2.2-0.7,2.9,0
		c0.7,0,1.4,0.7,1.4,0c0-2.2,0.7-3.7,1.4-4.5c0,0.7-0.7,0.7,0,1.5c-0.7,0.7,0,2.2-0.7,3c0,0.7-1.4,0-2.2,0.7
		c0.7,0.7,0.7,1.5,0.7,2.2c0.7,0,0,0,0,0.7c-0.7,0-2.2-0.7-2.9-1.5c0,1.5-1.4,0-2.2,0c0,0,0,0,0-0.7c0,0.7,0,1.5-0.7,2.2
		c-0.7,0-1.4,0-1.4,0.7c-0.7,0.7,0.7,0.7,1.4,1.5c-0.7,0.7-1.4,0-1.4,0c-0.7-0.7-0.7-1.5-0.7-2.2c0.7-0.7,2.2-0.7,1.4-1.5
		c-0.7-0.7,0.7-1.5,0-2.2c0-1.5,0-2.2,0-3h-0.7c0.7,0,0,1.5,0,1.5c-0.7,0-0.7-0.7,0-0.7c0-1.5,0-3,1.4-3
		C248.5,278,248.5,278.8,249.3,278.8z M255.8,278c0,0.7-0.7,1.5-1.4,2.2c-0.7,0.7,0,1.5-0.7,3c-0.7-1.5-2.9,0.7-2.9-1.5
		c-0.7-1.5-1.4-2.2-1.4-3.7H255.8z M260.8,281.8c-0.7-0.7-1.4-2.2-2.9-3c0.7,0,0.7-0.7,0.7-0.7C259.4,279.5,260.1,280.3,260.8,281.8
		L260.8,281.8z M265.9,278.8c-1.4,0.7-2.2,1.5-2.9,3c0.7-1.5,1.4-2.2,2.2-3.7C265.1,278.8,265.9,278.8,265.9,278.8z M271.6,278
		c0,0,0,0.7-0.7,0.7V278H271.6z M275.2,278.8h0.7c0,0.7,0,0-0.7,0.7h0.7c0.7,1.5,0.7,2.2,0.7,3h-1.4v-0.7c0,0,0-0.7-0.7-0.7
		c0-0.7-1.4,0-1.4-1.5c0-0.7-0.7-0.7,0-0.7l-0.7-0.7C273.8,278,275.2,278,275.2,278.8z M280.3,281.8c0,2.2,0,3.7-0.7,6v0.7
		c0-3,0-6.7-0.7-9.7V278C279.6,279.5,279.6,281,280.3,281.8L280.3,281.8z M278.1,281.8c0.7-1.5,0-2.2,0-3.7c1.4,3,1.4,7.5,0.7,10.5
		c0-0.7,0-2.2,0-3c-0.7,0.7-0.7,2.2-0.7,3c0-1.5,0.7-3.7-1.4-5.2v-3.7h0.7v2.2c0.7-1.5,0-2.2,0-3.7
		C278.1,278.8,278.1,280.3,278.1,281.8z M260.1,281.8c-0.7-0.7-1.4-1.5-2.9-1.5l0.7-1.5L260.1,281.8z M266.6,279.5v0.7
		c-1.4,0-2.2,0.7-3.6,1.5l2.9-3C266.6,278.8,265.9,279.5,266.6,279.5z M243.5,279.5c1.4,2.2,1.4,6,0.7,9
		C244.2,285.5,244.2,282.5,243.5,279.5z M245.7,280.3v-0.7V280.3z M244.9,282.5l0.7-0.7l-0.7-2.2c0,0,0,0.7,0.7,0.7v2.2
		c0,0,0.7,0,0.7,0.7v1.5c-2.2,0-0.7,3-1.4,4.5c0-3.7,0-6.7-0.7-9.7C244.9,280.3,244.9,281.8,244.9,282.5z M271.6,279.5
		c0,0.7,0,0.7-0.7,0.7S270.9,279.5,271.6,279.5z M281,284v2.2l-0.7-6C281,281,281,282.5,281,284L281,284z M260.1,282.5
		c-0.7,0-2.2-0.7-3.6-0.7c0-0.7,0.7-0.7,0.7-1.5C257.9,281,259.4,281.8,260.1,282.5L260.1,282.5z M267.3,281.8c-1.4,0-2.9,0-3.6,0.7
		c0.7-0.7,2.2-1.5,2.9-2.2L267.3,281.8z M271.6,280.3v0.7c-0.7,0-0.7,0,0,0C271.6,280.3,271.6,280.3,271.6,280.3z M274.5,281
		c0,0.7-0.7,1.5-0.7,2.2c0.7,1.5-0.7,2.2-0.7,4.5c-0.7,0.7,0.7,2.2-1.4,1.5c0.7,0,0.7-0.7,0.7-0.7s0,0,0-0.7l-0.7-1.5
		c0.7-0.7,0.7-1.5,0.7-2.2c-0.7,0.7-0.7,1.5-0.7,2.2c-0.7-0.7,0-0.7,0-1.5c-0.7,0.7-0.7,0.7-0.7,0.7c-0.7-0.7,0.7-0.7,0.7-1.5
		c0,0,0-0.7,0.7-0.7c-0.7,0,0-0.7-0.7-0.7c0-0.7,1.4-0.7,2.2-1.5L274.5,281z M260.1,283.3c-1.4-0.7-2.9,0-3.6,0c0-0.7,0-0.7,0-1.5
		C257.9,282.5,258.6,282.5,260.1,283.3z M267.3,281.8v0.7c-0.7,0-2.2,0-3.6,0.7h4.3l-0.7,0.7c-0.7,0-2.2-0.7-3.6-0.7c0,0,0,0,0-0.7
		C265.1,282.5,266.6,282.5,267.3,281.8z M263,282.5c0.7,0.7,0,1.5-0.7,2.2c-0.7,0-1.4-0.7-1.4-0.7c0-0.7,0-0.7,0-1.5l0.7-0.7
		C262.2,281.8,263,281.8,263,282.5z M243.5,286.3c0-1.5,0-3,0-4.5C243.5,283.3,244.2,284.8,243.5,286.3z M263,283.3l-0.7,0.7
		c-0.7,0-0.7,0-0.7-0.7c-0.7,0,0-0.7,0-0.7C262.2,281.8,262.2,282.5,263,283.3z M281.7,283.3v-0.7V283.3z M269.5,283.3v-0.7V283.3z
		 M277.4,284.8c0,1.5-1.4,2.2-2.2,4.5h-0.7c0-1.5,2.2-2.2,1.4-3.7c-0.7,0.7-1.4,0.7-2.2,0.7c0-0.7,0.7-1.5,0.7-2.2
		c0.7-0.7,1.4-0.7,2.2-0.7C276.7,284,277.4,284,277.4,284.8z M270.9,283.3h-0.7H270.9z M242.8,284.8c-0.7,0,0-0.7,0-1.5V284.8z
		 M260.1,283.3c-0.7,0.7-1.4,0.7-2.2,0.7l-1.4,0.7c0-0.7,0-0.7,0-1.5C257.9,284,259.4,283.3,260.1,283.3z M269.5,284
		c0,1.5,2.2,2.2,0.7,3.7c0,0.7-0.7,0.7-0.7,1.5c-0.7,0.7-2.2,0-2.9,0.7c0-0.7,0-1.5,0.7-1.5c0-0.7,0.7-1.5,1.4-1.5
		c0-1.5,0.7-2.2,0.7-3.7C270.2,284,269.5,284,269.5,284z M270.9,284.8h-0.7l1.4-1.5C271.6,284,270.9,284,270.9,284.8z M271.6,284.8
		l0.7-1.5L271.6,284.8z M265.9,284.8V284l0.7,0.7c0-0.7,0.7,0,0.7,0s-0.7,0.7,0,0.7c-1.4-0.7-2.2-1.5-3.6-1.5
		C264.4,284,265.1,284,265.9,284.8z M270.9,284h-0.7H270.9z M260.1,284c-0.7,0.7-2.2,1.5-2.9,2.2c0-0.7,0-1.5-0.7-1.5
		c0.7,0,2.2,0,2.9-0.7H260.1z M266.6,286.3v0.7c-0.7-0.7-2.2-2.2-2.9-3C264.4,284.8,265.9,285.5,266.6,286.3z M255,284v0.7h0.7
		c0,0-0.7,0-0.7,0.7c0.7,0,0.7,0.7,0.7,0.7H255h0.7c-0.7-0.7-0.7,0-0.7,0l-0.7-0.7c0-0.7,0-0.7,0-0.7C254.3,284,255,284,255,284z
		 M260.8,284.8c-1.4,0.7-2.2,1.5-2.9,2.2c0,0-0.7,0-0.7-0.7c0.7-0.7,2.2-1.5,3.6-2.2L260.8,284.8z M263.7,285.5
		c0.7,0,1.4,1.5,2.2,1.5c0.7,0.7-0.7,0-0.7,0.7c-0.7-0.7-1.4-2.2-2.2-3V284C263.7,284.8,263.7,284.8,263.7,285.5z M260.8,284.8
		c-0.7,0.7-0.7,2.2-1.4,3.7c0-0.7-0.7-0.7-0.7-0.7C259.4,286.3,260.1,285.5,260.8,284.8L260.8,284.8z M263.7,286.3
		c0.7,0.7,0.7,1.5,1.4,1.5c-0.7,0.7-0.7,0.7-0.7,0.7h-0.7c0-1.5,0-2.2-0.7-3.7C263.7,284.8,263,286.3,263.7,286.3L263.7,286.3z
		 M260.8,288.5v0.7c-0.7-0.7-0.7-0.7-1.4-0.7c0.7-1.5,1.4-2.2,2.2-3.7C261.5,286.3,260.8,287,260.8,288.5z M262.2,289.2
		c-0.7,0-0.7-0.7-1.4-0.7c0.7-0.7,0.7-2.2,0.7-3.7C261.5,286.3,262.2,287.8,262.2,289.2z M263,286.3h-0.7c0.7,0.7,0.7,1.5,1.4,2.2
		c0,0-0.7,0-1.4,0.7c0-1.5,0.7-3,0-4.5C262.2,284.8,262.2,285.5,263,286.3z M246.4,284.8c0,0.7,0,0.7-0.7,0.7
		C244.9,285.5,245.7,284.8,246.4,284.8z M245.7,286.3v3c-0.7-0.7,0-1.5,0-2.2C244.9,286.3,245.7,286.3,245.7,286.3z M250.7,287h0.7
		c0,0,0.7,0.7,1.4,0.7c0.7,0,0.7,0,1.4,0.7c0,1.5-2.2,0.7-2.9,1.5h-2.9c-0.7-0.7-1.4-1.5-1.4-2.2c0.7,0,1.4-2.2,2.2-0.7L250.7,287z
		 M277.4,286.3c0.7,0.7,0,0.7,0,1.5C277.4,287.8,277.4,287,277.4,286.3z M255.8,287.8v1.5c0,0,0,0.7,0,0c0-0.7-0.7-1.5-1.4-2.2
		c0-0.7,0.7,0,0.7,0C255.8,287,255.8,287.8,255.8,287.8z M271.6,287c0,0.7-0.7,1.5-0.7,2.2c0,0-0.7,0-0.7,0.7c0-0.7,0-0.7,0-0.7
		c0-0.7,0.7-1.5,0.7-2.2C270.9,287,270.9,286.3,271.6,287z M274.5,288.5c-0.7,0,0,0.7-0.7,0.7c0,0,0,0,0-0.7c0,0-0.7,0,0-0.7V287
		h1.4L274.5,288.5z M256.5,287.8c-0.7,0,0,0.7-0.7,0.7c0-0.7,0-0.7,0-1.5C255.8,287,255.8,287.8,256.5,287.8z M277.4,289.2
		c-0.7,0-0.7,0-0.7,0c0.7-0.7-0.7-1.5,0.7-2.2V289.2z M255,288.5v0.7h-0.7c0.7-0.7,0-1.5-0.7-2.2C254.3,287.8,255,287.8,255,288.5
		L255,288.5z M276,289.2c0,0,0-0.7,0-1.5C276.7,288.5,276,288.5,276,289.2z M257.2,289.2h-0.7c0,0,0,0,0-0.7h0.7V289.2z
		 M278.1,289.2v0.7C278.1,290,278.1,290,278.1,289.2z M277.4,290v-0.7V290z M276.7,290C276.7,289.2,276.7,289.2,276.7,290z
		 M247.1,290v0.7c-0.7,0-0.7-0.7-0.7-0.7S247.1,289.2,247.1,290z M256.5,290c0,0,0,0.7-0.7,0.7C255.8,290,255.8,290,256.5,290z
		 M247.8,290.7c-0.7-0.7,0-0.7,0-0.7V290.7z M248.5,290c0.7,0,0,0.7,0,0.7V290z M249.3,290v0.7C249.3,290,249.3,289.2,249.3,290z
		 M250.7,290v0.7c-0.7,0-0.7,0-0.7,0C250,290,250,290,250.7,290z M251.4,290c0.7,0,0,0.7,0,0.7C251.4,290,251.4,290,251.4,290z
		 M252.9,290.7c-0.7,0-0.7,0-0.7,0c0-0.7,0-0.7,0-0.7h0.7V290.7z M253.6,290v0.7h-0.7C252.9,290,252.9,290,253.6,290z M254.3,290
		c0.7,0,0,0.7,0,0.7C254.3,290,254.3,290,254.3,290z M257.2,290.7c0,0,0,0-0.7,0l0.7-0.7C257.9,290,257.2,290.7,257.2,290.7z
		 M272.3,290.7c0,0-1.4-0.7-0.7-0.7C271.6,290,272.3,290,272.3,290.7z M273.8,290.7h-0.7l-0.7-0.7C273.1,290,273.1,290,273.8,290.7z
		 M275.2,290.7c-0.7,0-0.7-0.7-0.7-0.7S275.2,290,275.2,290.7z M275.2,290v0.7V290C275.2,290,276,290,275.2,290z M255.8,290
		c0,0,0,0.7-0.7,0.7C255,290.7,255,290,255.8,290z M258.6,290v0.7c-0.7,0-0.7,0-0.7,0C257.9,290,258.6,290,258.6,290z M270.2,290.7
		c0,0.7-0.7,0-0.7-0.7C270.2,290,270.2,290.7,270.2,290.7z M271.6,290.7c-0.7,0.7-0.7,0-1.4-0.7C270.9,290,270.9,290,271.6,290.7z
		 M274.5,290.7c-0.7,0-0.7-0.7-0.7-0.7S273.8,290,274.5,290.7z M265.9,290.7c-0.7,0.7-0.7,0-0.7-0.7
		C265.1,290,265.9,290,265.9,290.7z M268,290.7c0,0-0.7,0.7-0.7,0V290C268,290,268,290.7,268,290.7z M269.5,290.7
		c-0.7,0.7-0.7,0-1.4-0.7C268.7,290,268.7,290,269.5,290.7z M259.4,290.7C259.4,290.7,259.4,291.5,259.4,290.7
		C258.6,290.7,259.4,290.7,259.4,290.7C259.4,290,259.4,290.7,259.4,290.7z M266.6,290.7c0,0,0,0,0-0.7V290.7z M265.1,290.7
		c0,0,0,0-0.7,0c0,0,0,0,0-0.7L265.1,290.7z M260.8,290.7c0,0-0.7,0.7-0.7,0H260.8z M264.4,290.7c-0.7,0-0.7,0.7-0.7,0
		C264.4,290,263.7,290.7,264.4,290.7z M263,290.7c0,0,0,0.7-0.7,0H263z M262.2,290.7c-0.7,0,0,0.7-0.7,0H262.2z M253.6,291.5
		c0-0.7,0.7,0,0.7,0c0,0.7-0.7,0-1.4,0c0,0,0,0-0.7,0H253.6z M272.3,291.5c-0.7,0-0.7,0-0.7,0H272.3z M273.8,291.5c0,0,0,0-0.7,0
		H273.8z M252.1,291.5h-0.7H252.1z M255.8,291.5c0,0,0,0.7-0.7,0.7v-0.7H255.8z M255.8,291.5c0.7,0,0,0.7,0,0.7V291.5z M257.2,292.2
		h-0.7v-0.7h0.7V292.2z M258.6,292.2h-0.7c-0.7-0.7,0-0.7,0-0.7S258.6,291.5,258.6,292.2z M270.2,291.5v0.7c0,0,0-0.7-0.7-0.7H270.2
		z M271.6,291.5c0,0,0,0-0.7,0H271.6z M259.4,291.5v0.7h-0.7v-0.7H259.4z M260.8,291.5c0,0.7,0,0.7-0.7,0.7c0,0,0,0,0-0.7H260.8z
		 M261.5,292.2c0,0,0,0-0.7,0C260.8,291.5,261.5,291.5,261.5,292.2z M263,291.5c0,0.7-0.7,0.7-0.7,0.7
		C262.2,291.5,263,291.5,263,291.5z M264.4,291.5c0,0.7-0.7,0.7-0.7,0.7H263v-0.7H264.4z M265.1,291.5v0.7h-0.7
		C264.4,291.5,265.1,291.5,265.1,291.5z M266.6,291.5c0.7,0.7,0,0.7-0.7,0.7v-0.7H266.6z M268,291.5c0,0.7,0,0.7-0.7,0.7v-0.7H268z
		 M269.5,291.5v0.7h-0.7v-0.7H269.5z M270.9,292.2v0.7c0,0,0,0-0.7,0C270.2,292.2,270.2,292.2,270.9,292.2z M255,293c0,0,0,0-0.7,0
		v-0.7C255,292.2,254.3,293,255,293z M270.2,292.2c0,0.7-0.7,0.7-0.7,0.7C268.7,292.2,270.2,292.2,270.2,292.2z M273.1,292.2
		c0,0.7,0,0.7-0.7,0.7c0-0.7,0-0.7,0-0.7H273.1z M274.5,293h-0.7v-0.7C274.5,292.2,274.5,292.2,274.5,293z M252.1,293.7
		c-0.7-0.7-0.7-0.7-0.7-1.5h0.7V293.7z M253.6,293h-0.7v-0.7C253.6,292.2,253.6,293,253.6,293z M255.8,293c0,0-0.7-0.7,0-0.7V293z
		 M256.5,293c-0.7,0.7-0.7,0-0.7,0C255.8,292.2,256.5,292.2,256.5,293z M257.9,292.2v0.7c-0.7,0.7-0.7,0-0.7,0v-0.7H257.9z
		 M268.7,293H268v-0.7h0.7V293z M259.4,293h-0.7v-0.7C258.6,292.2,259.4,292.2,259.4,293z M260.8,292.2c0,0.7,0,0.7-0.7,0.7
		C259.4,292.2,260.1,292.2,260.8,292.2z M261.5,293c-0.7,0-0.7,0-0.7-0.7C261.5,292.2,261.5,292.2,261.5,293z M263,293
		c0,0,0,0-0.7,0C262.2,292.2,262.2,292.2,263,293z M263.7,293H263v-0.7C263.7,292.2,263.7,292.2,263.7,293z M265.1,293
		c-0.7,0-0.7,0-0.7,0C264.4,292.2,265.1,292.2,265.1,293z M265.9,293v-0.7V293z M267.3,293h-0.7v-0.7
		C267.3,292.2,267.3,292.2,267.3,293z M250.7,293c-0.7,0-0.7,0-0.7-0.7C250.7,292.2,250.7,293,250.7,293z"/>
</g>
</svg>
