<?xml version="1.0" encoding="utf-8"?>
<!-- Generator: Adobe Illustrator 24.0.2, SVG Export Plug-In . SVG Version: 6.00 Build 0)  -->
<svg version="1.0" id="Layer_1" xmlns="http://www.w3.org/2000/svg" xmlns:xlink="http://www.w3.org/1999/xlink" x="0px" y="0px"
	 viewBox="0 0 300 280" enable-background="new 0 0 300 280" xml:space="preserve">
<g id="g118" transform="translate(-1.1060153,1.1060153)">
</g>
<g id="XMLID_1_">
	<path id="XMLID_30_" fill="#D72A29" d="M41.74,172.85v-19.49h5.4c2.05,0,3.38,0.1,4,0.29c0.96,0.29,1.76,0.93,2.4,1.91
		c0.64,0.98,0.97,2.24,0.97,3.8c0,1.2-0.19,2.2-0.56,3.02c-0.37,0.82-0.84,1.46-1.42,1.92c-0.57,0.47-1.16,0.77-1.75,0.92
		c-0.8,0.19-1.97,0.28-3.49,0.28h-2.2v7.35H41.74z M45.11,156.66v5.53h1.84c1.33,0,2.22-0.1,2.66-0.31c0.45-0.2,0.8-0.52,1.05-0.96
		c0.25-0.43,0.38-0.94,0.38-1.52c0-0.71-0.18-1.29-0.54-1.75c-0.36-0.46-0.81-0.75-1.35-0.86c-0.4-0.09-1.21-0.13-2.42-0.13H45.11z"
		/>
	<path id="XMLID_33_" fill="#D72A29" d="M54.79,165.59c0-1.24,0.26-2.44,0.79-3.6c0.52-1.16,1.26-2.05,2.22-2.66
		c0.96-0.61,2.03-0.92,3.21-0.92c1.83,0,3.33,0.69,4.49,2.08c1.17,1.39,1.75,3.14,1.75,5.26c0,2.14-0.59,3.91-1.77,5.31
		c-1.18,1.41-2.66,2.11-4.45,2.11c-1.11,0-2.16-0.29-3.17-0.88c-1.01-0.58-1.77-1.44-2.29-2.57
		C55.06,168.59,54.79,167.22,54.79,165.59z M58.07,165.79c0,1.4,0.28,2.47,0.85,3.22c0.57,0.74,1.27,1.12,2.1,1.12
		c0.83,0,1.53-0.37,2.1-1.12c0.57-0.74,0.85-1.82,0.85-3.24c0-1.38-0.28-2.45-0.85-3.19c-0.57-0.74-1.26-1.12-2.1-1.12
		c-0.83,0-1.54,0.37-2.1,1.12C58.35,163.32,58.07,164.39,58.07,165.79z"/>
	<polygon id="XMLID_34_" fill="#D72A29" points="70.49,172.85 66.66,158.73 69.77,158.73 72.03,167.99 74.11,158.73 77.2,158.73 
		79.21,167.99 81.52,158.73 84.67,158.73 80.79,172.85 77.72,172.85 75.64,163.77 73.59,172.85 	"/>
	<path id="XMLID_37_" fill="#D72A29" d="M94.08,168.36l3.19,0.62c-0.41,1.36-1.06,2.4-1.94,3.12c-0.88,0.71-1.99,1.07-3.32,1.07
		c-2.1,0-3.66-0.8-4.67-2.41c-0.8-1.28-1.19-2.91-1.19-4.87c0-2.34,0.52-4.17,1.57-5.5c1.05-1.32,2.37-1.99,3.97-1.99
		c1.8,0,3.22,0.69,4.26,2.08c1.04,1.39,1.54,3.51,1.49,6.37h-8.01c0.02,1.11,0.28,1.97,0.77,2.59c0.49,0.62,1.11,0.92,1.84,0.92
		c0.5,0,0.92-0.16,1.26-0.48C93.65,169.58,93.91,169.07,94.08,168.36z M94.26,164.58c-0.02-1.08-0.26-1.9-0.72-2.47
		c-0.46-0.56-1.01-0.84-1.66-0.84c-0.7,0-1.27,0.3-1.73,0.89c-0.45,0.59-0.68,1.4-0.67,2.42H94.26z"/>
	<path id="XMLID_38_" fill="#D72A29" d="M102.47,172.85h-3.2v-14.12h2.97v2.01c0.51-0.95,0.97-1.57,1.37-1.87
		c0.41-0.3,0.87-0.45,1.38-0.45c0.73,0,1.43,0.23,2.1,0.7l-0.99,3.26c-0.54-0.41-1.04-0.61-1.5-0.61c-0.45,0-0.83,0.14-1.14,0.43
		c-0.31,0.29-0.56,0.81-0.73,1.56c-0.18,0.75-0.27,2.33-0.27,4.73V172.85z"/>
	<path id="XMLID_39_" fill="#2A569C" d="M196.04,110.7h5.84v27.78c0,2.46-2.33,2.85-3.11,2.85c-1.28,0-2.05-0.87-2.48-1.37
		l-16.04-20.41v21.36h-5.81v-28.24c0-1.24,1.05-2.76,3.2-2.76c1.54,0,2.21,0.67,2.63,1.13l15.77,19.83V110.7z"/>
	<path id="XMLID_42_" fill="#2A569C" d="M47.45,116.08v7.62h7.01c3.41,0,5.08-0.76,5.08-3.83c0-3.11-1.67-3.79-5.08-3.79H47.45z
		 M55.82,110.7c6.44,0,9.51,2.73,9.51,9.09c0,4.67-1.97,7.66-5.49,8.5l6.78,12.62h-6.44l-6.15-12.19h-6.58v12.19h-5.72V110.7H55.82z
		"/>
	<rect id="XMLID_43_" x="123.78" y="110.7" fill="#2A569C" width="5.98" height="30.21"/>
	<path id="XMLID_44_" fill="#2A569C" d="M211.23,126.6c0,6.78,1.83,9.05,6.56,9.05h11.43v5.26h-11.69c-3.24,0-5.74-0.3-8.35-2.66
		c-2.76-2.48-4.1-6.44-4.1-11.91c0-10.69,3.99-15.66,12.6-15.66h11.54v5.18h-11.43C213.05,115.86,211.23,119.1,211.23,126.6"/>
	<path id="XMLID_45_" fill="#2A569C" d="M152.55,113.27c-0.35-0.72-0.47-0.75-0.7-0.75c-0.23,0-0.36,0.03-0.71,0.75l-13.46,27.64
		h-6.19l14.44-29.57c1.54-3.15,3.35-4.51,5.92-4.51c2.57,0,4.37,1.37,5.9,4.51l14.43,29.57h-6.16L152.55,113.27z"/>
	<polygon id="XMLID_46_" fill="#D72A29" points="151.83,121.84 142.71,140.91 147.83,140.91 155.84,140.91 160.96,140.91 	"/>
	<path id="XMLID_47_" fill="#2A569C" d="M120.86,135.65l-15.18,0h-1.74v-1.74V110.7h-5.7v25.25c0,2.76,2.28,4.97,5,4.97h14.63
		L120.86,135.65z"/>
	<path id="XMLID_50_" fill="#2A569C" d="M73.28,123.7c0.75-4.94,3.35-7.92,8.16-7.92c5.9,0,7.58,4.73,7.6,7.92H73.28z M81.18,110.28
		c-9.41,0.01-14.17,6.82-14.19,15.54c0.02,8.71,5.68,15.35,15.1,15.37c6.04,0,10.26-2.67,12.13-4.43l-2.73-4.47
		c-1.25,1.19-3.49,3.47-9.25,3.47c-4.23,0-8.94-3.06-8.94-6.74l-0.01-0.3h21.4l0.01-0.04C96.36,116.65,90.95,110.28,81.18,110.28"/>
	<path id="XMLID_53_" fill="#2A569C" d="M236.56,123.7c0.76-4.94,3.35-7.92,8.16-7.92c5.9,0,7.59,4.73,7.6,7.92H236.56z
		 M244.46,110.28c-9.42,0.01-14.17,6.82-14.19,15.54c0.02,8.71,5.67,15.35,15.1,15.37c6.04,0,10.26-2.67,12.13-4.43l-2.74-4.47
		c-1.25,1.19-3.49,3.47-9.24,3.47c-4.23,0-8.94-3.06-8.94-6.74l-0.01-0.3h21.4l0.01-0.04C259.64,116.65,254.23,110.28,244.46,110.28
		"/>
</g>
</svg>
